<svg width="22" height="19" viewBox="0 0 22 19" fill="none" xmlns="http://www.w3.org/2000/svg">
<path d="M13.1688 18.7194L22 9.54681L13.1688 0.374269C13.089 0.266047 12.9877 0.176795 12.8716 0.112555C12.7556 0.0483156 12.6275 0.0105882 12.4962 0.00192688C12.3648 -0.00673448 12.2331 0.0138729 12.1101 0.0623533C11.9871 0.110834 11.8756 0.186055 11.7832 0.282926C11.6908 0.379797 11.6196 0.496056 11.5744 0.623831C11.5293 0.751606 11.5112 0.887915 11.5215 1.02353C11.5317 1.15914 11.5701 1.2909 11.6339 1.40987C11.6977 1.52884 11.7855 1.63226 11.8914 1.71312L18.4987 8.59727L0.918964 8.59727C0.67524 8.59727 0.441499 8.69731 0.269159 8.87538C0.0968201 9.05346 0 9.29498 0 9.54681C0 9.79864 0.0968201 10.0402 0.269159 10.2182C0.441499 10.3963 0.67524 10.4963 0.918964 10.4963L18.4987 10.4963L11.8914 17.3805C11.7196 17.5593 11.6235 17.8013 11.6244 18.0533C11.6252 18.3053 11.7229 18.5466 11.896 18.7241C12.069 18.9016 12.3032 19.0009 12.5471 19C12.791 18.9991 13.0245 18.8982 13.1963 18.7194H13.1688Z" fill="white"/>
</svg>
