<svg width="24" height="24" viewBox="0 0 24 24" fill="none" xmlns="http://www.w3.org/2000/svg">
<path d="M12.12 18.99C12.44 18.99 12.71 18.88 12.93 18.66C13.15 18.44 13.26 18.17 13.26 17.85C13.26 17.53 13.15 17.26 12.93 17.04C12.71 16.82 12.44 16.71 12.12 16.71C11.8 16.71 11.53 16.82 11.31 17.04C11.09 17.26 10.98 17.53 10.98 17.85C10.98 18.17 11.09 18.44 11.31 18.66C11.53 18.88 11.8 18.99 12.12 18.99ZM11.07 14.61H12.84C12.84 14.09 12.905 13.615 13.035 13.185C13.165 12.755 13.57 12.26 14.25 11.7C14.87 11.18 15.31 10.67 15.57 10.17C15.83 9.67002 15.96 9.12 15.96 8.52C15.96 7.45998 15.615 6.61002 14.925 5.97C14.235 5.32998 13.32 5.01 12.18 5.01C11.2 5.01 10.335 5.25498 9.585 5.745C8.835 6.23502 8.29002 6.91002 7.95 7.77L9.54 8.37C9.76002 7.81002 10.09 7.37502 10.53 7.065C10.97 6.75498 11.49 6.6 12.09 6.6C12.77 6.6 13.32 6.78498 13.74 7.155C14.16 7.52502 14.37 7.99998 14.37 8.58C14.37 9.01998 14.24 9.435 13.98 9.825C13.72 10.215 13.34 10.62 12.84 11.04C12.24 11.56 11.795 12.075 11.505 12.585C11.215 13.095 11.07 13.77 11.07 14.61ZM12 24C10.36 24 8.80998 23.685 7.35 23.055C5.89002 22.425 4.61502 21.565 3.525 20.475C2.435 19.385 1.575 18.11 0.945 16.65C0.315 15.19 0 13.64 0 12C0 10.34 0.315 8.77998 0.945 7.32C1.575 5.86002 2.435 4.59 3.525 3.51C4.61502 2.43 5.89002 1.575 7.35 0.945C8.80998 0.315 10.36 0 12 0C13.66 0 15.22 0.315 16.68 0.945C18.14 1.575 19.41 2.43 20.49 3.51C21.57 4.59 22.425 5.86002 23.055 7.32C23.685 8.77998 24 10.34 24 12C24 13.64 23.685 15.19 23.055 16.65C22.425 18.11 21.57 19.385 20.49 20.475C19.41 21.565 18.14 22.425 16.68 23.055C15.22 23.685 13.66 24 12 24ZM12 22.2C14.84 22.2 17.25 21.205 19.23 19.215C21.21 17.225 22.2 14.82 22.2 12C22.2 9.16002 21.21 6.75 19.23 4.77C17.25 2.79 14.84 1.8 12 1.8C9.18 1.8 6.77502 2.79 4.785 4.77C2.795 6.75 1.8 9.16002 1.8 12C1.8 14.82 2.795 17.225 4.785 19.215C6.77502 21.205 9.18 22.2 12 22.2Z" fill="#6B7280"/>
</svg>
