<svg width="17" height="21" viewBox="0 0 17 21" fill="none" xmlns="http://www.w3.org/2000/svg">
<path fill-rule="evenodd" clip-rule="evenodd" d="M3.86314 4.5C3.86314 3.30652 4.35167 2.16193 5.22125 1.31802C6.09083 0.474105 7.27023 0 8.5 0C9.72977 0 10.9092 0.474105 11.7788 1.31802C12.6483 2.16193 13.1369 3.30652 13.1369 4.5C13.1369 5.69347 12.6483 6.83806 11.7788 7.68197C10.9092 8.52589 9.72977 8.99999 8.5 8.99999C7.27023 8.99999 6.09083 8.52589 5.22125 7.68197C4.35167 6.83806 3.86314 5.69347 3.86314 4.5ZM0.000123035 18.605C0.0348688 16.4395 0.945672 14.374 2.53593 12.8546C4.12619 11.3351 6.26834 10.4834 8.5 10.4834C10.7317 10.4834 12.8738 11.3351 14.4641 12.8546C16.0543 14.374 16.9651 16.4395 16.9999 18.605C17.0026 18.7508 16.9614 18.8942 16.8814 19.0176C16.8014 19.141 16.6861 19.2392 16.5496 19.3C14.0242 20.4237 11.2782 21.0036 8.5 21C5.62927 21 2.90177 20.392 0.450414 19.3C0.313869 19.2392 0.198555 19.141 0.118581 19.0176C0.0386077 18.8942 -0.00255731 18.7508 0.000123035 18.605Z" fill="#2C6B3F"/>
</svg>
