<svg width="25" height="22" viewBox="0 0 25 22" fill="none" xmlns="http://www.w3.org/2000/svg">
<path d="M12.3817 17.3296C13.818 17.3296 15.0216 16.8442 15.9923 15.8735C16.963 14.9027 17.4484 13.6992 17.4484 12.2628C17.4484 10.8265 16.963 9.62796 15.9923 8.66709C15.0216 7.70622 13.818 7.22581 12.3817 7.22581C10.9454 7.22581 9.74681 7.70622 8.78594 8.66709C7.82508 9.62796 7.34467 10.8265 7.34467 12.2628C7.34467 13.6992 7.82508 14.9027 8.78594 15.8735C9.74681 16.8442 10.9454 17.3296 12.3817 17.3296ZM12.3817 15.5466C11.4407 15.5466 10.663 15.2345 10.0489 14.6105C9.43478 13.9864 9.12769 13.2039 9.12769 12.2628C9.12769 11.3218 9.43478 10.5442 10.0489 9.93006C10.663 9.31593 11.4407 9.00883 12.3817 9.00883C13.3227 9.00883 14.1053 9.31593 14.7293 9.93006C15.3534 10.5442 15.6654 11.3218 15.6654 12.2628C15.6654 13.2039 15.3534 13.9864 14.7293 14.6105C14.1053 15.2345 13.3227 15.5466 12.3817 15.5466ZM2.29278 21.698C1.81731 21.698 1.40128 21.5197 1.04467 21.1631C0.688068 20.8065 0.509766 20.3904 0.509766 19.915V4.67015C0.509766 4.21447 0.688068 3.80343 1.04467 3.4369C1.40128 3.07037 1.81731 2.88714 2.29278 2.88714H6.66118L8.29562 0.925815C8.45413 0.707888 8.65222 0.549401 8.88995 0.450343C9.12769 0.351284 9.38522 0.301758 9.6626 0.301758H15.1305C15.4079 0.301758 15.6654 0.351284 15.9032 0.450343C16.1409 0.549401 16.339 0.707888 16.4975 0.925815L18.1319 2.88714H22.5003C22.956 2.88714 23.3671 3.07037 23.7336 3.4369C24.1001 3.80343 24.2833 4.21447 24.2833 4.67015V19.915C24.2833 20.3904 24.1001 20.8065 23.7336 21.1631C23.3671 21.5197 22.956 21.698 22.5003 21.698H2.29278ZM2.29278 19.915H22.5003V4.67015H17.2999L15.1305 2.08478H9.6626L7.49326 4.67015H2.29278V19.915Z" fill="white"/>
</svg>
