<svg width="45" height="45" viewBox="0 0 45 45" fill="none" xmlns="http://www.w3.org/2000/svg">
<g clip-path="url(#clip0_140_2965)">
<path d="M23.5818 43.9591L23.5027 43.9463C23.5138 43.9549 23.5269 43.9604 23.5407 43.9627C23.5543 43.9649 23.5687 43.9637 23.5818 43.9591Z" fill="black"/>
<path d="M41.4886 15.7846C41.4663 15.6658 41.4047 15.558 41.314 15.4781C41.2232 15.3983 41.1085 15.3511 40.9878 15.344C40.8671 15.3367 40.7474 15.3702 40.6479 15.4388C40.5484 15.5075 40.4746 15.6073 40.4383 15.7225C40.4036 15.8321 40.3351 15.9278 40.2426 15.9958C40.1501 16.0638 40.0384 16.1009 39.9236 16.1017H38.4007C38.3022 16.1017 38.2055 16.0748 38.1212 16.0238L35.9181 14.7028C35.8338 14.6518 35.7371 14.6249 35.6386 14.625H32.1145C32.0072 14.6249 31.9024 14.6569 31.8133 14.7166L27.4673 17.6137C27.3922 17.6636 27.3308 17.7317 27.2884 17.8114C27.2461 17.8911 27.2244 17.98 27.2251 18.0704V22.1791C27.225 22.2775 27.2517 22.3742 27.3025 22.4587C27.3529 22.5431 27.4256 22.6122 27.5126 22.6584L33.2111 25.7002C33.2967 25.7463 33.3685 25.8143 33.419 25.8974C33.4696 25.9805 33.4971 26.0754 33.4986 26.1727L33.5251 28.485C33.5267 28.5806 33.5533 28.6744 33.6026 28.7565C33.6519 28.8386 33.7219 28.9062 33.8057 28.9525L36.0954 30.2195C36.1802 30.2666 36.2509 30.3355 36.3003 30.4191C36.3495 30.5027 36.3757 30.5977 36.3759 30.6949V35.4789C36.3759 35.5835 36.4061 35.6858 36.4627 35.7737C36.5194 35.8614 36.6004 35.9311 36.6957 35.9741C36.7909 36.0172 36.8966 36.0318 37 36.0162C37.1034 36.0007 37.2 35.9557 37.2786 35.8866C38.2018 35.0734 39.5259 33.8863 39.7021 33.6145C39.9935 33.1637 40.2668 32.702 40.5221 32.2295C41.0507 31.2506 41.4985 30.23 41.8608 29.178C43.109 25.5643 42.1226 19.0685 41.4886 15.7846Z" fill="white"/>
<path d="M25.4923 27.1069L19.4551 22.5788C19.387 22.5278 19.3041 22.5 19.2189 22.5H16.3544C16.3054 22.5001 16.2568 22.4905 16.2116 22.4717C16.1663 22.453 16.1252 22.4254 16.0905 22.3907L14.74 21.0403C14.7034 21.0037 14.66 20.9747 14.6122 20.9548C14.5644 20.9353 14.5131 20.925 14.4614 20.925H9.22557C9.1517 20.925 9.07961 20.9032 9.01829 20.8621C8.95698 20.8212 8.90907 20.7629 8.88086 20.6947C8.85254 20.6266 8.84523 20.5515 8.85957 20.4793C8.87401 20.4068 8.90954 20.3403 8.96176 20.2881L9.79051 19.4593C9.82511 19.4247 9.86626 19.3971 9.91164 19.3784C9.95682 19.3596 10.0054 19.3499 10.0544 19.35H13.2408C13.4124 19.35 13.5793 19.2941 13.7162 19.1905C13.853 19.0868 13.9522 18.9414 13.9989 18.7762L14.677 16.3645C14.6915 16.3127 14.7164 16.2643 14.7502 16.2225C14.7841 16.1806 14.8261 16.1462 14.8739 16.1213L17.5779 14.7295C17.6388 14.6981 17.6898 14.6503 17.7254 14.5918C17.7609 14.5333 17.7798 14.4662 17.7798 14.3977V13.1672C17.7799 13.0908 17.8032 13.0165 17.8466 12.9536L19.2839 10.8844C19.327 10.8223 19.3882 10.7749 19.4591 10.7486L21.4702 9.9936C21.5412 9.96697 21.6026 9.91916 21.6459 9.85682C21.6891 9.79419 21.7123 9.72013 21.7123 9.64419V8.52191C21.7123 8.46041 21.6971 8.39994 21.6682 8.34557C21.6391 8.29138 21.5971 8.24507 21.546 8.21094L19.53 6.87022C19.4746 6.83376 19.4107 6.81257 19.3444 6.80872C19.2782 6.80497 19.2122 6.81866 19.153 6.84857L16.4086 8.22069C16.3457 8.25182 16.2754 8.26447 16.2058 8.25726C16.1361 8.25023 16.07 8.22351 16.0149 8.18038L14.7134 7.15176C14.669 7.11604 14.6334 7.07057 14.6092 7.01901C14.5849 6.96744 14.5729 6.91101 14.5738 6.85401C14.5748 6.79701 14.5887 6.74104 14.6146 6.69022C14.6405 6.63951 14.6777 6.59535 14.7234 6.56113L15.7805 5.78244C15.8283 5.74738 15.8671 5.70135 15.8935 5.64819C15.92 5.59504 15.9332 5.53635 15.9324 5.47701C15.9315 5.41766 15.9165 5.35935 15.8886 5.30704C15.8605 5.25463 15.8204 5.20982 15.7716 5.17607L14.1248 4.02735C14.0678 3.98722 14.0004 3.96388 13.931 3.96004C13.8613 3.95619 13.792 3.97204 13.731 4.00569C13.1355 4.33147 11.3882 5.29616 10.768 5.73032C7.89873 7.74247 5.58948 10.4528 4.05854 13.6053C3.87939 13.9754 3.65786 14.3524 3.6362 14.7589C3.61454 15.1655 3.29561 16.0731 3.16276 16.4403C3.14476 16.4898 3.13764 16.5428 3.14176 16.5954C3.14579 16.648 3.16098 16.6992 3.18639 16.7454L6.69957 23.2009C6.73117 23.2596 6.77814 23.3086 6.83542 23.3427L10.5318 25.5614C10.5797 25.5899 10.6206 25.6289 10.6515 25.6755C10.6823 25.7219 10.7023 25.7749 10.71 25.8302L11.4503 31.199C11.4574 31.2504 11.4752 31.2999 11.5024 31.344C11.5298 31.3883 11.5659 31.4264 11.6087 31.4559L14.4929 33.4384C14.5764 33.4959 14.6347 33.5834 14.6554 33.6825L16.185 40.9472C16.1936 40.9899 16.2099 41.0307 16.2333 41.0673C16.377 41.2996 16.9499 42.1501 17.6409 42.2761C17.577 42.2939 17.5198 42.3343 17.4559 42.3529C17.6218 42.3822 17.7862 42.4202 17.9481 42.4671C18.1449 42.5203 18.3418 42.5655 18.5387 42.6078C18.8468 42.6688 18.8773 42.7161 19.0249 42.4424C19.2218 42.0764 19.4472 41.9504 19.6155 41.905C19.685 41.889 19.7485 41.8537 19.7989 41.8033C19.8492 41.7528 19.8844 41.6891 19.9001 41.6196L20.8913 37.0244C20.9121 36.9282 20.9682 36.8431 21.0488 36.7862L25.4785 33.6461C25.53 33.6097 25.572 33.5615 25.6009 33.5055C25.6299 33.4494 25.6449 33.3874 25.6449 33.3242V27.4219C25.6455 27.3613 25.6319 27.3012 25.6055 27.2464C25.579 27.1918 25.5402 27.144 25.4923 27.1069Z" fill="white"/>
<path d="M23.0905 2.0249C23.0905 2.0249 22.7311 2.04562 22.6583 2.04759C22.1247 2.06334 21.5925 2.10009 21.0616 2.15784C19.1263 2.36775 17.2308 2.85337 15.4331 3.5999C15.6722 3.76528 15.2607 3.91687 15.2607 3.91687L15.9045 5.1749H19.3498L21.7123 6.35615L23.7795 5.1749L23.0905 2.0249Z" fill="white"/>
<path d="M32.1709 9.11838L33.7567 7.74035C33.8064 7.69722 33.8444 7.64238 33.8673 7.58088C33.8905 7.51919 33.8977 7.45291 33.8885 7.38785C33.8793 7.32279 33.8539 7.261 33.8147 7.20822C33.7754 7.15554 33.7237 7.11335 33.6642 7.08569L31.8126 6.22638C31.7186 6.1825 31.6109 6.17754 31.5132 6.2125C31.4155 6.24757 31.3356 6.31975 31.2909 6.41341L30.5279 8.00903C30.4865 8.09622 30.4784 8.19579 30.5054 8.2885C30.5325 8.38132 30.5927 8.46072 30.6747 8.512L31.7043 9.15588C31.7758 9.20032 31.8597 9.22075 31.9437 9.214C32.0277 9.20725 32.1073 9.17369 32.1709 9.11838Z" fill="white"/>
<path d="M39.5915 11.1472L39.0176 10.2613C39.0088 10.2475 39.0009 10.2337 38.993 10.219C38.8896 10.0073 38.0342 8.27972 37.3196 7.6094C36.7831 7.1024 36.6305 7.24809 36.5882 7.36031C36.5641 7.42237 36.5235 7.47684 36.4711 7.51781L33.6321 9.81243C33.5623 9.86906 33.475 9.8999 33.385 9.9H31.9154C31.8637 9.9 31.8125 9.91022 31.7646 9.92981C31.7168 9.94968 31.6734 9.97865 31.6367 10.0152L30.4555 11.1965C30.4188 11.233 30.3899 11.2764 30.3701 11.3242C30.3503 11.3721 30.3401 11.4232 30.3401 11.475C30.3401 11.5267 30.3503 11.578 30.3701 11.6258C30.3899 11.6736 30.4188 11.7171 30.4555 11.7535L31.6367 12.9348C31.6734 12.9713 31.7168 13.0004 31.7646 13.0202C31.8125 13.04 31.8637 13.05 31.9154 13.05H39.3149C39.368 13.05 39.4207 13.0394 39.4696 13.0185C39.5185 12.9977 39.5627 12.9672 39.5996 12.9289C39.6362 12.8905 39.6648 12.8451 39.6837 12.7954C39.7024 12.7457 39.711 12.6926 39.7086 12.6396L39.6545 11.3452C39.6516 11.2747 39.6299 11.2064 39.5915 11.1472Z" fill="white"/>
<path d="M22.5 4.3877C26.6904 4.38741 30.7513 5.83998 33.9908 8.49817C37.2302 11.1564 39.4478 14.8554 40.2657 18.9652C41.0834 23.0751 40.451 27.3414 38.4758 31.0373C36.5008 34.7329 33.3053 37.6296 29.434 39.2335C25.5626 40.8373 21.2549 41.0493 17.2449 39.8332C13.2347 38.6169 9.77039 36.048 7.4422 32.5639C5.11383 29.0799 4.06561 24.8963 4.47605 20.7259C4.88658 16.5556 6.73036 12.6568 9.69323 9.69348C11.3711 8.00626 13.3667 6.66845 15.5651 5.75766C17.7633 4.84688 20.1205 4.38132 22.5 4.3877ZM22.5 0.450195C10.3232 0.450195 0.449951 10.3235 0.449951 22.5002C0.449951 34.6769 10.3232 44.5502 22.5 44.5502C34.6766 44.5502 44.55 34.6769 44.55 22.5002C44.55 10.3235 34.6766 0.450195 22.5 0.450195Z" fill="white"/>
</g>
<defs>
<clipPath id="clip0_140_2965">
<rect width="45" height="45" fill="white"/>
</clipPath>
</defs>
</svg>
