<svg width="16" height="16" viewBox="0 0 16 16" fill="none" xmlns="http://www.w3.org/2000/svg">
<path d="M15.545 6.55848C15.6384 7.09542 15.6849 7.63947 15.684 8.18448C15.684 10.6185 14.814 12.6765 13.3 14.0695H13.302C11.978 15.2925 10.158 16.0005 8 16.0005C5.87827 16.0005 3.84344 15.1576 2.34315 13.6573C0.842855 12.157 0 10.1222 0 8.00048C0 5.87875 0.842855 3.84391 2.34315 2.34362C3.84344 0.843333 5.87827 0.000478003 8 0.000478003C9.98573 -0.0216359 11.9032 0.724295 13.352 2.08248L11.068 4.36648C10.2422 3.57973 9.14044 3.14879 8 3.16648C5.913 3.16648 4.14 4.57448 3.508 6.47048C3.1735 7.46408 3.1735 8.53988 3.508 9.53348H3.511C4.146 11.4265 5.916 12.8345 8.003 12.8345C9.081 12.8345 10.007 12.5585 10.725 12.0705H10.722C11.139 11.7944 11.4957 11.4366 11.7705 11.0188C12.0453 10.6009 12.2326 10.1317 12.321 9.63948H8V6.55948L15.545 6.55848Z" fill="#2C6B3F"/>
</svg>
