<svg width="21" height="22" viewBox="0 0 21 22" fill="none" xmlns="http://www.w3.org/2000/svg">
<path d="M21 15.8209C20.9989 18.8484 18.8807 21.3789 16.0516 22L15.3817 19.9816C16.6459 19.7743 17.7203 19.0003 18.3381 17.9277H15.75C14.5902 17.9277 13.65 16.9834 13.65 15.8185V11.6003C13.65 10.4354 14.5902 9.49112 15.75 9.49112H18.835C18.3183 5.32947 14.7836 2.10914 10.5 2.10914C6.2164 2.10914 2.68169 5.32947 2.16498 9.49112H5.25C6.4098 9.49112 7.35 10.4354 7.35 11.6003V15.8185C7.35 16.9834 6.4098 17.9277 5.25 17.9277H2.1C0.940202 17.9277 0 16.9834 0 15.8185V10.5457C0 4.72146 4.70101 0 10.5 0C16.2989 0 21 4.72146 21 10.5457V15.8209Z" fill="#2C6B3F"/>
</svg>
