<svg width="54" height="54" viewBox="0 0 54 54" fill="none" xmlns="http://www.w3.org/2000/svg">
<path fill-rule="evenodd" clip-rule="evenodd" d="M11.427 11.405C19.9665 2.87759 33.8483 2.96827 42.4399 11.56C51.0354 20.1554 51.1225 34.0454 42.584 42.584C34.0452 51.1225 20.1553 51.0354 11.5599 42.4399C6.46625 37.3464 4.36284 30.3973 5.26606 23.8077C5.39262 22.8843 6.24375 22.2385 7.16708 22.365C8.09044 22.4916 8.73634 23.3426 8.6098 24.266C7.84485 29.8467 9.62509 35.7322 13.9464 40.0536C21.2465 47.3537 32.9994 47.3954 40.1974 40.1974C47.3954 32.9994 47.3535 21.2466 40.0534 13.9465C32.7571 6.65012 21.0125 6.60463 13.8135 13.7915L15.4959 13.8C16.4278 13.8047 17.1795 14.564 17.1749 15.496C17.1702 16.4279 16.4109 17.1796 15.4789 17.1749L9.75141 17.1462C8.82605 17.1415 8.07707 16.3925 8.07241 15.4672L8.04364 9.73967C8.03893 8.80772 8.79066 8.04841 9.72263 8.04371C10.6546 8.03903 11.4139 8.79075 11.4186 9.72272L11.427 11.405Z" fill="white"/>
<path d="M33.8203 24.0312L32.8359 33.8727C32.6871 35.3645 32.6133 36.1098 32.2734 36.6734C31.9754 37.1696 31.537 37.5664 31.0137 37.8137C30.4195 38.0937 29.6719 38.0937 28.1719 38.0937H25.4062C23.9074 38.0937 23.1586 38.0937 22.5645 37.8125C22.0407 37.5654 21.6019 37.1686 21.3035 36.6723C20.966 36.1098 20.891 35.3645 20.741 33.8727L19.7578 24.0312M28.5469 31.6484V25.7891M25.0312 31.6484V25.7891M18 21.1016H23.4082M23.4082 21.1016L23.8605 17.9703C23.9918 17.4008 24.4652 17 25.009 17H28.5691C29.1129 17 29.5852 17.4008 29.7176 17.9703L30.1699 21.1016M23.4082 21.1016H30.1699M30.1699 21.1016H35.5781" stroke="white" stroke-width="2" stroke-linecap="round" stroke-linejoin="round"/>
</svg>
