<svg width="52" height="49" viewBox="0 0 52 49" fill="none" xmlns="http://www.w3.org/2000/svg">
<path d="M4.75201 22.9039C3.83159 22.9039 3.0668 22.6033 2.45764 22.002C1.84848 21.4008 1.54295 20.6412 1.54104 19.7231C1.53913 18.805 1.83989 18.0406 2.44332 17.4299C3.04675 16.8191 3.80772 16.5137 4.72623 16.5137C5.64474 16.5137 6.40858 16.8153 7.01774 17.4184C7.6269 18.0215 7.93243 18.7812 7.93434 19.6973C7.93625 20.6135 7.63549 21.377 7.03206 21.9877C6.43054 22.5985 5.67052 22.9039 4.75201 22.9039ZM2.20271 49V37.5481H0V27.1984C0 26.7918 0.13749 26.4511 0.412471 26.1763C0.687451 25.9014 1.02736 25.765 1.43219 25.7669H8.04319C8.44802 25.7669 8.78792 25.9033 9.06291 26.1763C9.33789 26.4492 9.47538 26.7899 9.47538 27.1984V37.5481H7.2698V46.137H33.3815V28.6299H26.9367C24.3186 28.6299 22.113 27.7423 20.3199 25.9673C18.5268 24.1922 17.6293 22.0879 17.6274 19.6544C17.6274 17.5663 18.2805 15.6787 19.5866 13.9914C20.8909 12.3042 22.5618 11.0206 24.5993 10.1407C24.7215 7.11356 25.8262 4.66667 27.9134 2.8C30.0006 0.933332 32.3007 0 34.8137 0C37.3267 0 39.6268 0.933332 41.714 2.8C43.8012 4.66667 44.9049 7.11356 45.0252 10.1407C47.0647 11.0225 48.7365 12.3061 50.0408 13.9914C51.3469 15.6787 52 17.5663 52 19.6544C52 22.0879 51.1025 24.1922 49.3075 25.9673C47.5125 27.7423 45.3069 28.6299 42.6908 28.6299H36.2459V46.137H50.5678V49H2.20271ZM26.9367 25.764H42.6908C44.4667 25.764 45.9848 25.1761 47.2451 24.0004C48.5055 22.8228 49.1356 21.3741 49.1356 19.6544C49.1356 18.1084 48.6515 16.7466 47.6834 15.5689C46.7152 14.3913 45.5064 13.5037 44.0571 12.9063L42.2611 12.1648L42.1608 10.3382C42.0959 8.2788 41.3607 6.51806 39.9553 5.05603C38.5498 3.59209 36.836 2.86012 34.8137 2.86012C32.7895 2.86012 31.0757 3.59209 29.6721 5.05603C28.2667 6.51806 27.5315 8.2788 27.4666 10.3382L27.3663 12.1648L25.5703 12.9035C24.1191 13.5028 22.9103 14.3913 21.944 15.5689C20.9759 16.7485 20.4918 18.1103 20.4918 19.6544C20.4918 21.3741 21.122 22.8228 22.3823 24.0004C23.6426 25.178 25.1607 25.7669 26.9367 25.7669" fill="white"/>
</svg>
