<svg width="14" height="17" viewBox="0 0 14 17" fill="none" xmlns="http://www.w3.org/2000/svg">
<path d="M9.52927 2.71133C9.85433 2.34097 10.1021 1.91084 10.2585 1.44551C10.4149 0.980248 10.4768 0.488968 10.4406 0C9.44278 0.0796515 8.51651 0.543611 7.86134 1.29192C7.54761 1.65056 7.30992 2.06783 7.16216 2.51892C7.01447 2.97002 6.95985 3.4459 7.0016 3.91825C7.48832 3.92222 7.96947 3.81547 8.40779 3.60622C8.8461 3.3969 9.2298 3.09072 9.52927 2.71133ZM11.6958 9.03488C11.7016 8.38357 11.8751 7.74455 12.2001 7.17796C12.525 6.61136 12.9905 6.13598 13.5529 5.79663C13.198 5.29111 12.7289 4.87428 12.1826 4.57924C11.6365 4.28419 11.0282 4.11896 10.4062 4.0967C9.065 3.96075 7.82698 4.87016 7.11332 4.87016C6.39973 4.87016 5.39384 4.11376 4.27616 4.13075C3.54546 4.15453 2.83349 4.36515 2.20969 4.74201C1.58588 5.11887 1.07153 5.64911 0.716786 6.28112C-0.796365 8.88194 0.329871 12.7492 1.84302 14.8486C2.53087 15.877 3.39061 17.0414 4.52547 16.9989C5.66034 16.9564 6.03007 16.302 7.34545 16.302C8.6609 16.302 9.065 16.9989 10.1827 16.9734C11.3004 16.9479 12.0913 15.9195 12.8135 14.891C13.3251 14.1444 13.7248 13.3285 14 12.4687C13.3187 12.1814 12.7373 11.7031 12.3278 11.0929C11.9183 10.4826 11.6986 9.76721 11.6958 9.03488Z" fill="#2C6B3F"/>
</svg>
