<svg width="37" height="45" viewBox="0 0 37 45" fill="none" xmlns="http://www.w3.org/2000/svg">
<path d="M18.5 44.5833C12.5743 39.5409 8.14845 34.8575 5.22241 30.5328C2.29636 26.2081 0.833344 22.2055 0.833344 18.525C0.833344 13.0042 2.60921 8.60594 6.16095 5.33021C9.71272 2.05451 13.8257 0.416667 18.5 0.416667C19.1257 0.416667 19.7238 0.444271 20.2943 0.499479C20.8648 0.554687 21.4445 0.6375 22.0333 0.747917V4.17083C21.4813 4.02361 20.9107 3.9132 20.3219 3.83958C19.733 3.76597 19.1257 3.72917 18.5 3.72917C14.4728 3.72917 11.0736 5.11122 8.30248 7.87531C5.53135 10.6398 4.14584 14.1897 4.14584 18.525C4.14584 21.2854 5.34199 24.4783 7.73439 28.1036C10.1268 31.729 13.7153 35.7684 18.5 40.2219C23.3951 35.7684 27.0113 31.729 29.3484 28.1036C31.6856 24.4783 32.8542 21.2854 32.8542 18.525C32.8542 18.2305 32.845 17.9361 32.8266 17.6417C32.8081 17.3472 32.7805 17.0528 32.7438 16.7583H36.1115C36.1482 17.0528 36.1667 17.3472 36.1667 17.6417V18.525C36.1667 22.2055 34.7037 26.2081 31.7776 30.5328C28.8516 34.8575 24.4257 39.5409 18.5 44.5833ZM18.505 21.9479C19.5691 21.9479 20.4783 21.569 21.2328 20.8112C21.9873 20.0534 22.3646 19.1425 22.3646 18.0784C22.3646 17.0143 21.9856 16.105 21.2279 15.3505C20.4701 14.596 19.5591 14.2188 18.495 14.2188C17.431 14.2188 16.5217 14.5977 15.7672 15.3555C15.0127 16.1133 14.6354 17.0242 14.6354 18.0883C14.6354 19.1524 15.0144 20.0617 15.7722 20.8161C16.53 21.5706 17.4409 21.9479 18.505 21.9479Z" fill="white"/>
</svg>
