<svg width="42" height="42" viewBox="0 0 42 42" fill="none" xmlns="http://www.w3.org/2000/svg">
<path d="M38.7552 8.49066H30.2811V6.47301C30.2811 4.02152 28.2938 2.03418 25.8423 2.03418H16.1576C13.7061 2.03418 11.7187 4.02152 11.7187 6.47301V8.49066H3.24464C1.68458 8.49066 0.419922 9.75532 0.419922 11.3154V37.1412C0.419922 38.7013 1.68458 39.966 3.24464 39.966H38.7552C40.3153 39.966 41.5799 38.7013 41.5799 37.1412V11.3154C41.5799 9.75537 40.3152 8.49073 38.7552 8.49066ZM2.84109 18.9824H39.1588V29.4742H2.84109V18.9824ZM14.1399 6.47301C14.1399 5.35869 15.0433 4.45536 16.1576 4.45536H25.8423C26.9566 4.45536 27.8599 5.35869 27.8599 6.47301V8.49066H14.1399V6.47301ZM3.24464 10.9118H38.7552C38.9781 10.9118 39.1588 11.0925 39.1588 11.3154V16.5612H2.84109V11.3154C2.84109 11.0925 3.02176 10.9118 3.24464 10.9118ZM38.7552 37.5448H3.24464C3.02176 37.5448 2.84109 37.3641 2.84109 37.1412V31.8954H39.1588V37.1412C39.1588 37.3641 38.9781 37.5448 38.7552 37.5448Z" fill="#2C6B3F"/>
</svg>
