<svg width="35" height="34" viewBox="0 0 35 34" fill="none" xmlns="http://www.w3.org/2000/svg">
<path d="M4.56763 18.7778V4.55556C4.56763 3.61256 4.9435 2.70819 5.61256 2.0414C6.28162 1.3746 7.18906 1 8.13526 1H29.541C30.4872 1 31.3947 1.3746 32.0637 2.0414C32.7328 2.70819 33.1087 3.61256 33.1087 4.55556V27.6667C33.1087 29.4444 32.0384 33 27.7572 33M27.7572 33H6.35144C4.56763 33 1 31.9333 1 27.6667V24.1111H22.4058V27.6667C22.4058 31.9333 25.9734 33 27.7572 33ZM11.7029 8.11111H25.9734ZM11.7029 15.2222H18.8381Z" fill="#2C6B3F"/>
<path d="M4.56763 18.7778V4.55556C4.56763 3.61256 4.9435 2.70819 5.61256 2.0414C6.28162 1.3746 7.18906 1 8.13526 1H29.541C30.4872 1 31.3947 1.3746 32.0637 2.0414C32.7328 2.70819 33.1087 3.61256 33.1087 4.55556V27.6667C33.1087 29.4444 32.0384 33 27.7572 33M27.7572 33H6.35144C4.56763 33 1 31.9333 1 27.6667V24.1111H22.4058V27.6667C22.4058 31.9333 25.9734 33 27.7572 33ZM11.7029 8.11111H25.9734M11.7029 15.2222H18.8381" stroke="white" stroke-width="2" stroke-linecap="round" stroke-linejoin="round"/>
</svg>
