<svg width="36" height="36" viewBox="0 0 36 36" fill="none" xmlns="http://www.w3.org/2000/svg">
<path d="M4.875 19.875V4.875C4.875 3.88044 5.27009 2.92661 5.97335 2.22335C6.67661 1.52009 7.63044 1.125 8.625 1.125H31.125C32.1196 1.125 33.0734 1.52009 33.7767 2.22335C34.4799 2.92661 34.875 3.88044 34.875 4.875V29.25C34.875 31.125 33.75 34.875 29.25 34.875M29.25 34.875H6.75C4.875 34.875 1.125 33.75 1.125 29.25V25.5H23.625V29.25C23.625 33.75 27.375 34.875 29.25 34.875ZM12.375 8.625H27.375M12.375 16.125H19.875" stroke="#2C6B3F" stroke-width="2" stroke-linecap="round" stroke-linejoin="round"/>
</svg>
