<svg width="16" height="21" viewBox="0 0 16 21" fill="none" xmlns="http://www.w3.org/2000/svg">
<path d="M0 21V7.15H3.25V4.75C3.25 3.43583 3.7134 2.31566 4.64025 1.3895C5.5669 0.463165 6.68775 0 8.00275 0C9.3176 0 10.4375 0.463165 11.3625 1.3895C12.2875 2.31566 12.75 3.43583 12.75 4.75V7.15H16V21H0ZM8.00425 16C8.53475 16 8.9875 15.8164 9.3625 15.4492C9.7375 15.0821 9.925 14.6406 9.925 14.125C9.925 13.625 9.7361 13.1708 9.35825 12.7625C8.9804 12.3541 8.52625 12.15 7.99575 12.15C7.46525 12.15 7.0125 12.3541 6.6375 12.7625C6.2625 13.1708 6.075 13.6291 6.075 14.1375C6.075 14.6459 6.2639 15.0834 6.64175 15.45C7.0196 15.8167 7.47375 16 8.00425 16ZM4.75 7.15H11.25V4.75C11.25 3.84717 10.9344 3.07983 10.303 2.448C9.67165 1.816 8.905 1.5 8.003 1.5C7.101 1.5 6.33335 1.816 5.7 2.448C5.06665 3.07983 4.75 3.84717 4.75 4.75V7.15Z" fill="#2C6B3F"/>
</svg>
