<svg width="23" height="23" viewBox="0 0 23 23" fill="none" xmlns="http://www.w3.org/2000/svg">
<path d="M17.17 17.17C15.5383 18.4138 13.5514 19.1029 11.5 19.1364C4.81818 19.1364 1 11.5 1 11.5C2.18735 9.2873 3.83417 7.35407 5.83 5.83003M9.49545 4.09276C10.1525 3.93897 10.8252 3.86209 11.5 3.86367C18.1818 3.86367 22 11.5 22 11.5C21.4206 12.584 20.7296 13.6046 19.9382 14.545M13.5236 13.5237C13.2615 13.805 12.9453 14.0307 12.5941 14.1872C12.2428 14.3437 11.8636 14.4279 11.4791 14.4347C11.0946 14.4414 10.7127 14.3707 10.3561 14.2267C9.99951 14.0827 9.6756 13.8683 9.40367 13.5964C9.13175 13.3244 8.91737 13.0005 8.77335 12.644C8.62932 12.2874 8.55859 11.9055 8.56538 11.5209C8.57216 11.1364 8.65632 10.7573 8.81284 10.406C8.96935 10.0547 9.19501 9.73856 9.47636 9.4764" stroke="#2C6B3F" stroke-width="2" stroke-linecap="round" stroke-linejoin="round"/>
<path d="M1 1L22 22" stroke="#2C6B3F" stroke-width="2" stroke-linecap="round" stroke-linejoin="round"/>
</svg>
