<svg width="32" height="32" viewBox="0 0 32 32" fill="none" xmlns="http://www.w3.org/2000/svg">
<path d="M7.30871 2.65652C7.19065 2.50465 7.04162 2.37964 6.87153 2.28978C6.70144 2.19993 6.51418 2.1473 6.32218 2.13538C6.13018 2.12346 5.93785 2.15254 5.75795 2.22066C5.57806 2.28879 5.41471 2.39442 5.27878 2.53053L3.21084 4.60048C2.24487 5.56845 1.88888 6.93842 2.31087 8.14039C4.06427 13.1145 6.91303 17.631 10.6466 21.3561C14.3717 25.0897 18.8881 27.9384 23.8622 29.6919C25.0642 30.1139 26.4341 29.7579 27.4021 28.7919L29.47 26.7239C29.6061 26.588 29.7117 26.4247 29.7799 26.2448C29.848 26.0649 29.8771 25.8725 29.8652 25.6805C29.8532 25.4885 29.8006 25.3013 29.7108 25.1312C29.6209 24.9611 29.4959 24.8121 29.344 24.694L24.7302 21.1061C24.5678 20.9805 24.3791 20.8933 24.1782 20.851C23.9773 20.8088 23.7694 20.8126 23.5702 20.8621L19.1903 21.9561C18.6057 22.1012 17.9934 22.0929 17.4129 21.9321C16.8323 21.7713 16.3031 21.4634 15.8764 21.0381L10.9646 16.1242C10.539 15.6977 10.2307 15.1686 10.0695 14.588C9.90831 14.0075 9.89975 13.3951 10.0446 12.8103L11.1406 8.43038C11.1901 8.23116 11.1939 8.02331 11.1516 7.82242C11.1094 7.62153 11.0222 7.43281 10.8966 7.27041L7.30871 2.65652ZM3.76882 1.02257C4.1188 0.672473 4.53925 0.400841 5.00226 0.225707C5.46527 0.0505729 5.96024 -0.0240559 6.4543 0.00677591C6.94836 0.0376077 7.43021 0.173195 7.86786 0.404534C8.3055 0.635872 8.68892 0.95767 8.99266 1.34856L12.5805 5.96044C13.2385 6.80642 13.4705 7.9084 13.2105 8.94837L12.1166 13.3283C12.0604 13.5551 12.0636 13.7927 12.126 14.0179C12.1884 14.2432 12.3077 14.4485 12.4726 14.6142L17.3864 19.5281C17.5523 19.6933 17.758 19.8128 17.9836 19.8752C18.2093 19.9376 18.4472 19.9406 18.6744 19.8841L23.0522 18.7901C23.5655 18.6626 24.101 18.653 24.6185 18.7621C25.136 18.8712 25.6221 19.0962 26.0401 19.4201L30.652 23.008C32.3099 24.298 32.4619 26.7479 30.978 28.2299L28.91 30.2978C27.4301 31.7778 25.2181 32.4278 23.1562 31.7018C17.8777 29.847 13.0856 26.8254 9.13665 22.862C5.17352 18.9136 2.15198 14.1222 0.296933 8.84437C-0.427045 6.78442 0.222935 4.57048 1.70289 3.09051L3.76882 1.02257Z" fill="#2C6B3F"/>
</svg>
