<svg width="34" height="33" viewBox="0 0 34 33" fill="none" xmlns="http://www.w3.org/2000/svg">
<path d="M10.8901 10.5482L15.2261 3.33411C15.4535 2.95646 15.7733 2.64667 16.1538 2.43569C16.5342 2.22471 16.9619 2.11992 17.394 2.13176C17.8149 2.13007 18.2293 2.23814 18.5983 2.44584C18.9674 2.65354 19.2791 2.95407 19.5042 3.31926L24.6206 11.6466" stroke="white" stroke-width="2.5" stroke-miterlimit="10"/>
<path d="M7.99931 15.2832L2.55048 24.1895C2.33251 24.5395 2.21712 24.9466 2.21806 25.3621C2.2103 25.6588 2.26074 25.954 2.3664 26.2302C2.47205 26.5064 2.63074 26.758 2.83303 26.9699C3.03532 27.1818 3.27707 27.3497 3.54387 27.4637C3.81068 27.5777 4.09708 27.6353 4.38603 27.6332H16.0353" stroke="white" stroke-width="2.5" stroke-miterlimit="10"/>
<path d="M21.73 27.6336H30.4019C30.9705 27.6297 31.5145 27.3949 31.9153 26.9806C32.316 26.5662 32.5409 26.0059 32.5409 25.4219C32.5399 25.0113 32.4246 24.6095 32.2085 24.2641L27.5112 16.4414" stroke="white" stroke-width="2.5" stroke-miterlimit="10"/>
<path d="M25.6754 23.373L21.5996 27.559L25.7477 31.8043" stroke="white" stroke-width="2.5" stroke-miterlimit="10"/>
<path d="M18.9692 10.3555L24.5771 11.6914L25.8923 5.82812" stroke="white" stroke-width="2.5" stroke-miterlimit="10"/>
<path d="M9.37227 21.027L8.07149 15.2676L2.37695 16.6332" stroke="white" stroke-width="2.5" stroke-miterlimit="10"/>
</svg>
