<svg width="63" height="63" viewBox="0 0 63 63" fill="none" xmlns="http://www.w3.org/2000/svg">
<path d="M20.4258 22.0253L27.8086 10.0652C28.1958 9.43906 28.7404 8.92548 29.3882 8.5757C30.0359 8.22591 30.7641 8.05217 31.5 8.07181C32.2166 8.06901 32.9221 8.24818 33.5506 8.59252C34.179 8.93686 34.7097 9.4351 35.093 10.0406L43.8047 23.8464" stroke="white" stroke-width="3" stroke-miterlimit="10"/>
<path d="M15.5039 29.876L6.22615 44.6416C5.855 45.222 5.65852 45.8968 5.66014 46.5857C5.64692 47.0776 5.73281 47.567 5.9127 48.025C6.0926 48.4829 6.36281 48.9 6.70725 49.2513C7.05169 49.6026 7.46331 49.881 7.9176 50.07C8.37189 50.2589 8.85955 50.3545 9.35154 50.351H29.1867" stroke="white" stroke-width="3" stroke-miterlimit="10"/>
<path d="M38.8828 50.3509H53.6484C54.6167 50.3444 55.543 49.9552 56.2254 49.2682C56.9077 48.5813 57.2906 47.6523 57.2906 46.6841C57.2889 46.0033 57.0925 45.3373 56.7246 44.7645L48.7266 31.7954" stroke="white" stroke-width="3" stroke-miterlimit="10"/>
<path d="M45.6012 43.2881L38.6613 50.2279L45.7242 57.2662" stroke="white" stroke-width="3" stroke-miterlimit="10"/>
<path d="M34.1824 21.7056L43.7309 23.9204L45.9703 14.1997" stroke="white" stroke-width="3" stroke-miterlimit="10"/>
<path d="M48.8496 31.9184L48.7512 31.7461" stroke="white" stroke-miterlimit="10"/>
<path d="M17.8418 39.3995L15.6269 29.8511L5.93085 32.1151" stroke="white" stroke-width="3" stroke-miterlimit="10"/>
<path d="M20.5489 21.7056L20.3766 22.0255" stroke="white" stroke-miterlimit="10"/>
</svg>
