<svg width="72" height="72" viewBox="0 0 72 72" fill="none" xmlns="http://www.w3.org/2000/svg">
<g clip-path="url(#clip0_151_1203)">
<path d="M36 18C35.9962 20.478 36.6756 22.9091 37.9635 25.0261C39.2513 27.1432 41.0979 28.8642 43.3002 30.0002C45.5025 31.1362 47.9753 31.6431 50.4469 31.4652C52.9185 31.2873 55.2933 30.4315 57.3102 28.9919L64.3185 36L67.5 32.8185L60.4913 25.8102C61.7217 24.0791 62.5261 22.0821 62.8391 19.9816C63.1522 17.881 62.9649 15.7362 62.2927 13.7216C61.6204 11.7071 60.4821 9.87965 58.9704 8.388C57.4587 6.89635 55.6162 5.78261 53.5928 5.13736C51.5695 4.49211 49.4223 4.33359 47.3262 4.67468C45.23 5.01577 43.2439 5.84684 41.5295 7.1003C39.8151 8.35376 38.4207 9.99419 37.4599 11.8882C36.4991 13.7822 35.9989 15.8762 36 18ZM40.5 18C40.5 16.2199 41.0279 14.4799 42.0168 12.9998C43.0057 11.5198 44.4113 10.3662 46.0559 9.68505C47.7004 9.00386 49.51 8.82563 51.2558 9.1729C53.0017 9.52016 54.6053 10.3773 55.864 11.636C57.1226 12.8947 57.9798 14.4983 58.3271 16.2442C58.6744 17.99 58.4961 19.7996 57.8149 21.4441C57.1337 23.0886 55.9802 24.4943 54.5001 25.4832C53.0201 26.4721 51.28 27 49.5 27C47.1139 26.9973 44.8263 26.0482 43.139 24.361C41.4518 22.6737 40.5027 20.3861 40.5 18Z" fill="white"/>
<path d="M24.75 54H47.25V58.5H24.75V54Z" fill="white"/>
<path d="M29.25 63H42.75V67.5H29.25V63Z" fill="white"/>
<path d="M24.3326 40.8162C22.2254 39.2087 20.5457 37.1079 19.4415 34.6986C18.3372 32.2893 17.8422 29.6454 18 26.9998C18.0064 23.0132 19.3353 19.1413 21.7783 15.9909C24.2213 12.8405 27.6405 10.5896 31.5 9.59088L30.631 5.1748C25.7489 6.378 21.4099 9.18048 18.3053 13.1358C15.2006 17.0911 13.5091 21.9716 13.5 26.9998C13.3472 30.2687 13.9734 33.527 15.3269 36.5064C16.6805 39.4858 18.7226 42.1009 21.285 44.1363C23.5613 46.2391 24.75 47.4332 24.75 49.4998H29.25C29.25 45.3598 26.7507 43.0509 24.3326 40.8162Z" fill="white"/>
<path d="M51.8609 36C50.7045 37.8072 49.2852 39.432 47.6498 40.8208C45.2405 43.0533 42.75 45.3625 42.75 49.5H47.25C47.25 47.4313 48.4344 46.2375 50.7042 44.1322C52.8282 42.3239 54.6302 40.1685 56.0335 37.7577L51.8609 36Z" fill="white"/>
</g>
<defs>
<clipPath id="clip0_151_1203">
<rect width="72" height="72" fill="white"/>
</clipPath>
</defs>
</svg>
