<svg width="23" height="23" viewBox="0 0 23 23" fill="none" xmlns="http://www.w3.org/2000/svg">
<path fill-rule="evenodd" clip-rule="evenodd" d="M4.76346 4.76346C7.93909 1.58782 9.52694 0 11.5 0C13.4731 0 15.0609 1.58782 18.2366 4.76346C21.4122 7.93909 23 9.52694 23 11.5C23 13.4731 21.4122 15.0609 18.2366 18.2366C15.0609 21.4122 13.4731 23 11.5 23C9.52694 23 7.93909 21.4122 4.76346 18.2366C1.58782 15.0609 0 13.4731 0 11.5C0 9.52694 1.58782 7.93909 4.76346 4.76346ZM13.6232 7.42078C13.2757 7.09498 12.7299 7.11259 12.4041 7.4601C12.0783 7.80761 12.0959 8.35344 12.4435 8.67922L13.9189 10.0625H9.9667C9.32834 10.0625 8.3819 10.2353 7.56746 10.7852C6.70689 11.366 6.0375 12.3447 6.0375 13.8C6.0375 14.2763 6.42366 14.6625 6.9 14.6625C7.37634 14.6625 7.7625 14.2763 7.7625 13.8C7.7625 12.9553 8.11533 12.4965 8.53255 12.2148C8.99587 11.9022 9.58283 11.7875 9.9667 11.7875H13.9189L12.4435 13.1707C12.0959 13.4965 12.0783 14.0424 12.4041 14.3899C12.7299 14.7374 13.2757 14.7551 13.6232 14.4293L16.69 11.5543C16.8638 11.3912 16.9625 11.1634 16.9625 10.925C16.9625 10.6866 16.8638 10.4588 16.69 10.2957L13.6232 7.42078Z" fill="white"/>
</svg>
