<svg width="31" height="35" viewBox="0 0 31 35" fill="none" xmlns="http://www.w3.org/2000/svg">
<path fill-rule="evenodd" clip-rule="evenodd" d="M6.91758 5.58367H4.03265C3.51868 5.58367 3.10204 6.00032 3.10204 6.51429V30.7102C3.10204 31.2242 3.51868 31.6408 4.03265 31.6408H26.3673C26.8813 31.6408 27.298 31.2242 27.298 30.7102V6.51429C27.298 6.00032 26.8813 5.58367 26.3673 5.58367H23.4824C23.0514 7.70755 21.1736 9.30612 18.9224 9.30612H11.4776C9.22644 9.30612 7.34868 7.70755 6.91758 5.58367ZM7.36117 2.48163C8.14134 1.00574 9.69199 0 11.4776 0H18.9224C20.708 0 22.2587 1.00574 23.0387 2.48163H26.3673C28.5946 2.48163 30.4 4.28712 30.4 6.51429V30.7102C30.4 32.9375 28.5946 34.7429 26.3673 34.7429H4.03265C1.80549 34.7429 0 32.9375 0 30.7102V6.51429C0 4.28712 1.80549 2.48163 4.03265 2.48163H7.36117ZM22.8931 15.3861C23.5097 14.5638 23.3432 13.3972 22.5208 12.7804C21.6985 12.1636 20.5319 12.3303 19.9151 13.1527L13.5266 21.6706L11.2692 20.1657C10.4139 19.5955 9.2583 19.8266 8.6881 20.6819C8.11792 21.5371 8.34903 22.6927 9.2043 23.2629L12.9268 25.7445C13.7487 26.2924 14.8555 26.1028 15.4482 25.3127L22.8931 15.3861Z" fill="#2C6B3F"/>
</svg>
