<svg width="46" height="46" viewBox="0 0 46 46" fill="none" xmlns="http://www.w3.org/2000/svg">
<path d="M13.6667 2H6.66667C5.42899 2 4.242 2.49167 3.36684 3.36684C2.49167 4.242 2 5.42899 2 6.66667V13.6667M44 13.6667V6.66667C44 5.42899 43.5083 4.242 42.6332 3.36684C41.758 2.49167 40.571 2 39.3333 2H32.3333M32.3333 44H39.3333C40.571 44 41.758 43.5083 42.6332 42.6332C43.5083 41.758 44 40.571 44 39.3333V32.3333M2 32.3333V39.3333C2 40.571 2.49167 41.758 3.36684 42.6332C4.242 43.5083 5.42899 44 6.66667 44H13.6667" stroke="white" stroke-width="3" stroke-linecap="round" stroke-linejoin="round"/>
<path d="M31.75 18.625L30.525 30.8721C30.3398 32.7285 30.2479 33.656 29.825 34.3575C29.4541 34.975 28.9086 35.4687 28.2573 35.7765C27.5179 36.125 26.5875 36.125 24.7208 36.125H21.2792C19.414 36.125 18.4821 36.125 17.7427 35.775C17.0909 35.4675 16.5449 34.9737 16.1735 34.356C15.7535 33.656 15.6602 32.7285 15.4735 30.8721L14.25 18.625M25.1875 28.1042V20.8125M20.8125 28.1042V20.8125M12.0625 14.9792H18.7927M18.7927 14.9792L19.3556 11.0825C19.519 10.3737 20.1081 9.875 20.7848 9.875H25.2152C25.8919 9.875 26.4796 10.3737 26.6444 11.0825L27.2073 14.9792M18.7927 14.9792H27.2073M27.2073 14.9792H33.9375" stroke="white" stroke-width="3" stroke-linecap="round" stroke-linejoin="round"/>
</svg>
