<svg width="20" height="20" viewBox="0 0 20 20" fill="none" xmlns="http://www.w3.org/2000/svg">
<path d="M19.6776 15.8298L19.6373 0.318598L4.1261 0.278351C3.96449 0.25647 3.80008 0.269567 3.64397 0.316755C3.48787 0.363941 3.34373 0.444119 3.22131 0.551856C3.09889 0.659594 3.00104 0.792375 2.9344 0.941215C2.86776 1.09005 2.83387 1.25147 2.83503 1.41455C2.8362 1.57762 2.87239 1.73854 2.94115 1.88641C3.00991 2.03429 3.10964 2.16566 3.23359 2.27164C3.35754 2.37761 3.50281 2.45572 3.65957 2.50067C3.81633 2.54563 3.98092 2.55637 4.1422 2.53219L15.7656 2.58048L0.36702 17.979C0.153536 18.1925 0.0336021 18.482 0.0336021 18.784C0.0336021 19.0859 0.153537 19.3754 0.36702 19.5889C0.580504 19.8024 0.870051 19.9223 1.17196 19.9223C1.47387 19.9223 1.76342 19.8024 1.9769 19.5889L17.3754 4.19037L17.4237 15.8137C17.4248 16.1158 17.5458 16.4051 17.7602 16.6179C17.9745 16.8308 18.2647 16.9498 18.5668 16.9487C18.8688 16.9476 19.1581 16.8266 19.371 16.6122C19.5838 16.3979 19.7028 16.1078 19.7017 15.8057L19.6776 15.8298Z" fill="#2C6B3F"/>
</svg>
