<svg width="38" height="38" viewBox="0 0 38 38" fill="none" xmlns="http://www.w3.org/2000/svg">
<path d="M13.0625 1.78125C13.0625 0.794141 12.2684 0 11.2812 0C10.2941 0 9.5 0.794141 9.5 1.78125V4.75C6.88008 4.75 4.75 6.88008 4.75 9.5H1.78125C0.794141 9.5 0 10.2941 0 11.2812C0 12.2684 0.794141 13.0625 1.78125 13.0625H4.75V17.2188H1.78125C0.794141 17.2188 0 18.0129 0 19C0 19.9871 0.794141 20.7812 1.78125 20.7812H4.75V24.9375H1.78125C0.794141 24.9375 0 25.7316 0 26.7188C0 27.7059 0.794141 28.5 1.78125 28.5H4.75C4.75 31.1199 6.88008 33.25 9.5 33.25V36.2188C9.5 37.2059 10.2941 38 11.2812 38C12.2684 38 13.0625 37.2059 13.0625 36.2188V33.25H17.2188V36.2188C17.2188 37.2059 18.0129 38 19 38C19.9871 38 20.7812 37.2059 20.7812 36.2188V33.25H24.9375V36.2188C24.9375 37.2059 25.7316 38 26.7188 38C27.7059 38 28.5 37.2059 28.5 36.2188V33.25C31.1199 33.25 33.25 31.1199 33.25 28.5H36.2188C37.2059 28.5 38 27.7059 38 26.7188C38 25.7316 37.2059 24.9375 36.2188 24.9375H33.25V20.7812H36.2188C37.2059 20.7812 38 19.9871 38 19C38 18.0129 37.2059 17.2188 36.2188 17.2188H33.25V13.0625H36.2188C37.2059 13.0625 38 12.2684 38 11.2812C38 10.2941 37.2059 9.5 36.2188 9.5H33.25C33.25 6.88008 31.1199 4.75 28.5 4.75V1.78125C28.5 0.794141 27.7059 0 26.7188 0C25.7316 0 24.9375 0.794141 24.9375 1.78125V4.75H20.7812V1.78125C20.7812 0.794141 19.9871 0 19 0C18.0129 0 17.2188 0.794141 17.2188 1.78125V4.75H13.0625V1.78125ZM11.875 9.5H26.125C27.4387 9.5 28.5 10.5613 28.5 11.875V26.125C28.5 27.4387 27.4387 28.5 26.125 28.5H11.875C10.5613 28.5 9.5 27.4387 9.5 26.125V11.875C9.5 10.5613 10.5613 9.5 11.875 9.5ZM26.125 11.875H11.875V26.125H26.125V11.875Z" fill="white"/>
</svg>
