<svg width="30" height="30" viewBox="0 0 30 30" fill="none" xmlns="http://www.w3.org/2000/svg">
<path d="M27.3019 4.94243H28.4211C29.2931 4.94243 30 5.65322 30 6.52999V17.6429C30 18.5197 29.2931 19.2304 28.4211 19.2304H25.2632L18.6817 9.96601C17.8964 8.86059 16.4987 8.37995 15.2046 8.77029L11.2806 9.95396C10.1679 10.2896 8.96169 9.98385 8.14022 9.15789L7.67798 8.6931C6.97343 7.98471 7.08957 6.80531 7.91861 6.2496L16.4465 0.533262C17.487 -0.164139 18.8385 -0.178602 19.8936 0.496399L26.4544 4.69423C26.7076 4.85634 27.0018 4.94243 27.3019 4.94243ZM4.77955 18.1109L2.22838 20.3554C1.48405 21.0101 1.51491 22.1839 2.29262 22.7985L10.4095 29.2108C11.1675 29.8096 12.2776 29.5917 12.7559 28.7501L13.8673 26.7945C14.5462 25.5999 14.3826 24.1016 13.4621 23.0835L9.19564 18.3646C8.03819 17.0844 6.07449 16.9717 4.77955 18.1109ZM7.96661 3.35496H1.57893C0.706919 3.35496 0 4.06575 0 4.94253V16.8743C0 17.5227 0.196971 18.1468 0.552926 18.6692C0.590678 18.6334 0.629299 18.598 0.668788 18.5632L3.21996 16.3187C5.4861 14.325 8.92258 14.5224 10.9481 16.7627L15.2147 21.4816C16.8256 23.2632 17.1118 25.8853 15.9237 27.976L14.8906 29.7939C15.7794 30.1326 16.7919 30.0562 17.6351 29.5475L24.5969 25.3476C25.387 24.8709 25.6049 23.818 25.0696 23.0639L16.7539 11.3501C16.5575 11.0738 16.208 10.9536 15.8845 11.0512L11.9605 12.2348C10.0132 12.8222 7.90242 12.2872 6.46487 10.8418L6.0026 10.377C4.24124 8.60597 4.53161 5.65749 6.60421 4.26819L7.96661 3.35496Z" fill="white"/>
</svg>
