<svg width="49" height="49" viewBox="0 0 49 49" fill="none" xmlns="http://www.w3.org/2000/svg">
<g clip-path="url(#clip0_151_1275)">
<path fill-rule="evenodd" clip-rule="evenodd" d="M29.1458 18.7833C29.0119 18.3538 28.771 17.9654 28.4457 17.6545C28.1207 17.3437 27.7217 17.1205 27.2867 17.0059C26.057 16.7886 24.7985 16.7886 23.5686 17.0059C23.0996 17.0465 22.628 17.0465 22.159 17.0059C22.0194 17.0003 21.8824 16.9667 21.756 16.907C21.6296 16.8473 21.5167 16.7629 21.4236 16.6586C20.9128 15.8619 21.5869 15.3307 22.4042 14.963C23.4924 14.4675 24.6825 14.2365 25.8771 14.2889C26.0261 14.3337 26.1868 14.3181 26.3244 14.2455C26.462 14.1729 26.5656 14.049 26.6125 13.9007C26.6272 13.8267 26.6264 13.7504 26.6105 13.6767C26.5943 13.603 26.5633 13.5333 26.5194 13.472C26.4753 13.4107 26.4192 13.3591 26.3544 13.3204C26.2895 13.2817 26.2176 13.2567 26.1427 13.247C25.4726 13.098 24.7842 13.0498 24.0998 13.104C24.0906 13.0499 24.0906 12.9946 24.0998 12.9405C24.1205 12.7846 24.1205 12.6266 24.0998 12.4707C24.1307 12.3224 24.1307 12.1695 24.0998 12.0212C23.9977 11.6331 23.8138 11.3266 23.6913 10.9589C23.6913 10.7855 23.6223 10.6193 23.4998 10.4967C23.3771 10.3741 23.2109 10.3052 23.0376 10.3052C22.8624 10.3105 22.696 10.3839 22.5739 10.5097C22.452 10.6356 22.3836 10.804 22.3838 10.9794C22.2507 11.3603 22.1415 11.7492 22.0569 12.1438C22.0467 12.3071 22.0467 12.4708 22.0569 12.6341C22.0357 12.7968 22.0357 12.9616 22.0569 13.1244L22.1794 13.39C21.4348 13.563 20.7374 13.8978 20.1366 14.3706C19.6775 14.7538 19.3757 15.2928 19.289 15.8845C19.2024 16.4762 19.3368 17.0791 19.6667 17.5779C19.8748 17.957 20.1672 18.2832 20.5214 18.5311C20.8756 18.7791 21.2823 18.9422 21.7097 19.008C22.9044 19.1402 24.1102 19.1402 25.3052 19.008C25.7387 18.9445 26.1791 18.9445 26.6125 19.008C26.7297 19.0331 26.8381 19.089 26.9263 19.1698C27.0147 19.2507 27.0801 19.3536 27.1154 19.4681C27.1507 19.5825 27.155 19.7043 27.1276 19.8209C27.1003 19.9375 27.0425 20.0448 26.9598 20.1316C26.6066 20.5038 26.1831 20.8025 25.7138 21.0099C24.6809 21.472 23.5551 21.6888 22.4246 21.6433C22.0957 21.6102 21.7764 21.513 21.4849 21.3572C21.1474 21.1845 20.8319 20.972 20.5451 20.7241C20.4781 20.6704 20.4011 20.6304 20.3186 20.6065C20.2361 20.5824 20.1497 20.5751 20.0643 20.5847C19.979 20.5941 19.8963 20.6202 19.821 20.6616C19.7458 20.7033 19.6795 20.759 19.6258 20.8262C19.5109 20.9477 19.4469 21.1083 19.4469 21.2756C19.4469 21.4428 19.5109 21.6037 19.6258 21.7251C20.0397 22.1041 20.4916 22.4395 20.9742 22.7262C21.3342 22.9113 21.7197 23.0422 22.1182 23.1143C22.4853 23.1474 22.8544 23.1474 23.2213 23.1143C23.2117 23.2707 23.2117 23.4277 23.2213 23.5841C23.2097 23.7405 23.2097 23.8975 23.2213 24.0541C23.344 24.4422 23.5073 24.7486 23.6505 25.1163C23.6503 25.2013 23.6674 25.2852 23.7005 25.3634C23.7336 25.4416 23.7821 25.5124 23.843 25.5714C23.904 25.6306 23.9763 25.6768 24.0555 25.7074C24.1347 25.738 24.2193 25.7523 24.3042 25.7497C24.39 25.7527 24.4753 25.7376 24.5549 25.7056C24.6345 25.6735 24.7064 25.6251 24.766 25.5635C24.8258 25.5018 24.872 25.4285 24.9014 25.3479C24.931 25.2672 24.9432 25.1815 24.9373 25.0959C25.0839 24.7176 25.2001 24.3281 25.2848 23.9314C25.306 23.7619 25.306 23.5902 25.2848 23.4207C25.306 23.2648 25.306 23.1067 25.2848 22.9507C26.2601 22.7511 27.1846 22.3548 28.0019 21.7864C28.4919 21.4771 28.8683 21.0171 29.0748 20.4756C29.281 19.9341 29.3059 19.3402 29.1458 18.7833Z" fill="white"/>
<path fill-rule="evenodd" clip-rule="evenodd" d="M9.20694 17.9457C8.19531 16.3067 7.64096 14.4269 7.60143 12.5013C7.56193 10.5757 8.0387 8.67469 8.98221 6.99567C9.39042 6.25814 9.97971 5.63669 10.6946 5.18992C11.4094 4.74314 12.2262 4.48577 13.068 4.44203C14.9375 4.28574 16.8106 4.69881 18.4409 5.62691C19.6564 6.41859 20.6931 7.45537 21.4848 8.67086C22.2815 9.59016 23.0375 9.38587 23.5277 8.97729C23.7423 8.727 23.9275 8.45281 24.0794 8.16011C24.5696 7.36339 24.9373 6.1172 25.4073 5.48392C26.227 4.2935 27.3479 3.34184 28.6554 2.72597C29.929 2.12517 31.3647 1.96006 32.7412 2.2561C33.633 2.49865 34.4607 2.93338 35.1667 3.52982C35.8725 4.12625 36.4392 4.86991 36.8272 5.70862C37.6887 7.43585 38.1497 9.33526 38.1755 11.2653C38.0758 15.0373 36.8837 18.6993 34.7432 21.8068C32.6914 25.001 29.6909 27.4727 26.1631 28.8753C26.0835 28.9026 26.01 28.9457 25.9473 29.0019C25.8844 29.058 25.8334 29.1262 25.7973 29.2022C25.7611 29.2783 25.7405 29.3608 25.7368 29.4451C25.7329 29.5292 25.7458 29.6134 25.775 29.6924C25.8003 29.7738 25.8418 29.8494 25.8971 29.9145C25.9522 29.9794 26.0202 30.0327 26.0964 30.0709C26.1727 30.1089 26.256 30.1313 26.3412 30.1364C26.4263 30.1417 26.5116 30.1295 26.5921 30.1009C30.4353 28.675 33.7357 26.0819 36.0303 22.6852C38.3758 19.3302 39.7153 15.3755 39.8915 11.2858C39.9558 8.59591 39.2467 5.94407 37.8486 3.64529C36.837 1.99225 35.2394 0.781323 33.3745 0.254061C31.5317 -0.212848 29.5845 -0.0325442 27.8587 0.764788C26.157 1.50187 24.688 2.68832 23.6094 4.19687C23.1925 4.93173 22.8305 5.69652 22.5267 6.48492C21.7025 5.36219 20.6602 4.41725 19.4624 3.70658C17.0731 2.36249 14.2672 1.96165 11.5971 2.58297C10.6522 2.8176 9.76979 3.25534 9.01125 3.86569C8.25271 4.47607 7.63629 5.24439 7.2049 6.1172C6.17276 8.09074 5.68194 10.3025 5.78243 12.5274C5.8829 14.7523 6.57109 16.9108 7.77692 18.7832C11.1425 23.8534 16.0375 27.7181 21.7505 29.8149C22.445 30.1417 22.8127 29.243 22.4042 28.8138C16.9598 26.6893 12.3362 22.8816 9.20694 17.9457Z" fill="white"/>
<path fill-rule="evenodd" clip-rule="evenodd" d="M44.9987 32.9406C44.9642 32.3616 44.717 31.8158 44.3042 31.4083C44.1053 31.2752 43.8815 31.1831 43.6465 31.1374C43.4115 31.0919 43.1698 31.0937 42.9354 31.1427C41.8731 31.3062 39.1969 31.9396 38.9721 31.96C35.468 32.1209 32.1483 33.5768 29.6564 36.0458C27.713 38.3506 26.5474 41.2106 26.3267 44.2173C26.1631 43.1959 26.0202 42.1744 25.8771 40.9897C25.7342 39.8047 25.5298 38.4972 25.3461 37.292C24.8926 34.8589 24.5653 32.4043 24.3654 29.9375C24.3738 29.8634 24.3673 29.7883 24.3458 29.717C24.3244 29.6456 24.2889 29.5792 24.2411 29.5218C24.1933 29.4645 24.1345 29.4175 24.068 29.3836C24.0016 29.3497 23.9291 29.3297 23.8546 29.3246C22.2611 29.1613 23.1192 31.9804 23.1192 36.5974C23.1686 37.5566 23.2778 38.5117 23.4461 39.4574C23.589 40.3972 23.773 41.3574 23.9773 42.2767C23.9679 42.3786 23.9679 42.4811 23.9773 42.5832C22.7278 40.8065 21.1545 39.2818 19.3398 38.0887C17.6016 37.0401 15.5842 36.548 13.5584 36.6791C12.6989 36.7256 11.8482 36.8767 11.0252 37.1285C9.86073 37.4553 8.73712 37.9457 7.63394 38.3543L5.79534 38.9672H4.81473C4.52487 39.0511 4.27703 39.2406 4.12015 39.4982C4.00388 39.6816 3.94214 39.8941 3.94214 40.1111C3.94214 40.3282 4.00388 40.5407 4.12015 40.724C4.52136 41.2951 5.04476 41.7698 5.65232 42.1132C6.71464 42.7669 8.18554 43.3186 8.88011 43.7271C11.8211 45.5863 15.0528 46.9397 18.4409 47.7312C20.7974 48.2343 23.2531 47.9695 25.4481 46.9754C25.6695 47.5538 25.9359 48.1139 26.2448 48.6506C26.2854 48.7278 26.3414 48.7962 26.4089 48.8517C26.4763 48.907 26.5543 48.9485 26.6382 48.9732C26.7219 48.9979 26.8099 49.0057 26.8967 48.9959C26.9837 48.9861 27.0676 48.9589 27.1437 48.916C27.2944 48.834 27.4069 48.6957 27.4565 48.5314C27.5063 48.367 27.4892 48.1896 27.4094 48.0377C27.3273 47.8972 27.2654 47.7459 27.2254 47.5881C27.3187 47.642 27.4243 47.6704 27.5319 47.6704C27.6395 47.6704 27.7452 47.642 27.8383 47.5881C28.753 46.9285 29.7667 46.418 30.8414 46.0765C33.6511 45.4903 36.3905 44.6071 39.013 43.4411C40.4444 42.574 41.699 41.4441 42.7106 40.1111C43.7407 38.7591 44.4779 37.2077 44.8762 35.5556C45.0659 34.6973 45.1073 33.8128 44.9987 32.9406ZM24.9781 45.7904C23.0241 46.5506 20.8807 46.6792 18.8495 46.1581C15.7217 45.2502 12.7668 43.828 10.1059 41.9499C9.53386 41.6026 8.51241 41.153 7.57267 40.6424L8.53283 40.3359C9.59515 39.907 10.5757 39.437 11.7811 39.0693C12.4434 38.8361 13.1279 38.6718 13.824 38.5791C15.4896 38.3753 17.1778 38.6816 18.6657 39.4574C21.2115 41.0834 23.3726 43.2445 24.9988 45.7904H24.9781ZM42.9558 33.9212C42.9177 34.3059 42.8562 34.6879 42.7719 35.0652C42.4119 36.4245 41.7794 37.6963 40.9129 38.8037C40.1091 39.9727 39.0899 40.978 37.9099 41.7659C35.4664 42.9701 32.9061 43.9215 30.2693 44.6057C29.0692 45.0477 27.9457 45.6751 26.9394 46.4646V46.669C26.9394 46.7302 26.8373 46.2398 26.776 46.0152C26.9157 46.0211 27.0525 45.974 27.1589 45.8829C27.265 45.7919 27.3326 45.6639 27.3481 45.5248C27.5692 42.4176 28.8283 39.475 30.9231 37.1693C33.2093 35.1429 36.1622 34.03 39.2173 34.0437C39.4217 34.0437 41.6279 33.5331 42.915 33.3287C42.9407 33.5251 42.9544 33.723 42.9558 33.9212Z" fill="white"/>
</g>
<defs>
<clipPath id="clip0_151_1275">
<rect width="49" height="49" fill="white"/>
</clipPath>
</defs>
</svg>
