<svg width="40" height="40" viewBox="0 0 40 40" fill="none" xmlns="http://www.w3.org/2000/svg">
<path fill-rule="evenodd" clip-rule="evenodd" d="M16.25 1.25C11.945 1.25 8.77833 1.39333 6.61667 1.5475C3.86667 1.74417 1.74417 3.86583 1.5475 6.6175C1.39333 8.77833 1.25 11.945 1.25 16.25C1.25 20.555 1.39333 23.7217 1.5475 25.8833C1.73917 28.5617 3.75583 30.6442 6.40167 30.9333C6.29631 28.5404 6.24574 26.1453 6.25 23.75C6.25 19.3892 6.395 16.1633 6.55417 13.9392C6.83917 9.9475 9.9475 6.83917 13.9392 6.55417C16.1633 6.39583 19.3892 6.25 23.75 6.25C26.625 6.25 29.0058 6.31333 30.9333 6.40167C30.6442 3.75583 28.5617 1.73917 25.8833 1.5475C23.7217 1.39333 20.555 1.25 16.25 1.25ZM23.75 8.75C19.445 8.75 16.2783 8.89333 14.1167 9.0475C11.3667 9.24417 9.24417 11.3658 9.0475 14.1175C8.89333 16.2783 8.75 19.445 8.75 23.75C8.75 28.055 8.89333 31.2217 9.0475 33.3833C9.24417 36.1333 11.3658 38.2558 14.1175 38.4525C16.2783 38.6067 19.445 38.75 23.75 38.75C28.055 38.75 31.2217 38.6067 33.3833 38.4525C36.1333 38.2558 38.2558 36.1342 38.4525 33.3825C38.6067 31.2217 38.75 28.055 38.75 23.75C38.75 19.445 38.6067 16.2783 38.4525 14.1167C38.2558 11.3667 36.1342 9.24417 33.3825 9.0475C31.2217 8.89333 28.055 8.75 23.75 8.75ZM27.0833 17.0833C27.0833 16.1993 27.4345 15.3514 28.0596 14.7263C28.6848 14.1012 29.5326 13.75 30.4167 13.75C31.3007 13.75 32.1486 14.1012 32.7737 14.7263C33.3988 15.3514 33.75 16.1993 33.75 17.0833C33.75 17.9674 33.3988 18.8152 32.7737 19.4404C32.1486 20.0655 31.3007 20.4167 30.4167 20.4167C29.5326 20.4167 28.6848 20.0655 28.0596 19.4404C27.4345 18.8152 27.0833 17.9674 27.0833 17.0833ZM36.1808 28.6583C35.2945 27.8488 34.3878 27.0619 33.4617 26.2983C32.2175 25.28 30.5475 25.1192 29.1817 26.03C28.295 26.6217 27.105 27.5008 25.5742 28.7975C23.2483 26.5833 21.6242 25.1692 20.5408 24.2825C19.2958 23.265 17.6258 23.1033 16.26 24.0142C15.1283 24.7692 13.4992 25.995 11.3 27.9608C11.355 30.1375 11.4467 31.8742 11.5417 33.205C11.65 34.7158 12.785 35.8508 14.2958 35.9583C16.3933 36.1083 19.5 36.25 23.75 36.25C28 36.25 31.1067 36.1083 33.205 35.9583C34.7158 35.85 35.8508 34.7158 35.9583 33.205C36.0433 32.0192 36.125 30.5117 36.1808 28.6583Z" fill="white"/>
</svg>
