<svg width="26" height="27" viewBox="0 0 26 27" fill="none" xmlns="http://www.w3.org/2000/svg">
<path d="M26 19.4165C25.9987 23.1322 23.3761 26.2377 19.8734 27L19.044 24.5228C20.6092 24.2685 21.9394 23.3185 22.7044 22.0021H19.5C18.064 22.0021 16.9 20.8433 16.9 19.4137V14.2367C16.9 12.8071 18.064 11.6482 19.5 11.6482H23.3195C22.6798 6.54071 18.3035 2.58849 13 2.58849C7.69649 2.58849 3.32019 6.54071 2.68046 11.6482H6.5C7.93594 11.6482 9.1 12.8071 9.1 14.2367V19.4137C9.1 20.8433 7.93594 22.0021 6.5 22.0021H2.6C1.16406 22.0021 0 20.8433 0 19.4137V12.9424C0 5.79452 5.82029 0 13 0C20.1796 0 26 5.79452 26 12.9424V19.4165Z" fill="#66BB6A"/>
</svg>
