<svg width="27" height="25" viewBox="0 0 27 25" fill="none" xmlns="http://www.w3.org/2000/svg">
<path d="M13.5 25L12.1163 23.7381C9.73127 21.5325 7.7625 19.6282 6.21 18.0252C4.6575 16.4222 3.42 14.9898 2.4975 13.7278C1.575 12.4659 0.928125 11.3233 0.556875 10.3001C0.185625 9.27694 0 8.24236 0 7.19645C0 5.15007 0.680623 3.43909 2.04188 2.06344C3.40313 0.687817 5.08498 0 7.0875 0C8.37 0 9.55685 0.306958 10.6481 0.920873C11.7394 1.53479 12.69 2.42156 13.5 3.58117C14.445 2.35334 15.4462 1.44952 16.5038 0.869714C17.5613 0.289905 18.6975 0 19.9125 0C21.915 0 23.5969 0.687817 24.9581 2.06344C26.3194 3.43909 27 5.15007 27 7.19645C27 8.24236 26.8144 9.27694 26.4431 10.3001C26.0719 11.3233 25.425 12.4659 24.5025 13.7278C23.58 14.9898 22.3425 16.4222 20.79 18.0252C19.2375 19.6282 17.2687 21.5325 14.8837 23.7381L13.5 25Z" fill="#2C6B3F"/>
</svg>
