<svg width="24" height="24" viewBox="0 0 24 24" fill="none" xmlns="http://www.w3.org/2000/svg">
<path fill-rule="evenodd" clip-rule="evenodd" d="M0 11.7812C0 5.27437 5.27437 0 11.7812 0C18.2881 0 23.5625 5.27437 23.5625 11.7812C23.5625 18.2881 18.2881 23.5625 11.7812 23.5625C5.27437 23.5625 0 18.2881 0 11.7812ZM10.5197 10.0388C11.9045 9.34646 13.4645 10.5983 13.0887 12.1002L12.232 15.5271L12.2827 15.5029C12.4956 15.4093 12.7364 15.4012 12.9552 15.4801C13.174 15.5591 13.354 15.7192 13.458 15.9273C13.562 16.1353 13.5821 16.3754 13.514 16.5978C13.4459 16.8202 13.2949 17.0079 13.0923 17.1221L13.044 17.1487C11.658 17.841 10.098 16.5892 10.4738 15.0873L11.3317 11.6604L11.281 11.6846C11.1741 11.744 11.0563 11.7811 10.9347 11.7938C10.813 11.8065 10.6901 11.7944 10.5733 11.7583C10.4564 11.7222 10.3481 11.6628 10.2548 11.5838C10.1615 11.5047 10.0852 11.4076 10.0304 11.2982C9.97568 11.1889 9.94362 11.0696 9.93619 10.9475C9.92876 10.8254 9.94611 10.7031 9.9872 10.588C10.0283 10.4728 10.0923 10.3671 10.1753 10.2773C10.2583 10.1875 10.3586 10.1154 10.4702 10.0654L10.5197 10.0388ZM11.7812 8.15625C12.0216 8.15625 12.2521 8.06077 12.4221 7.89082C12.592 7.72086 12.6875 7.49035 12.6875 7.25C12.6875 7.00965 12.592 6.77914 12.4221 6.60918C12.2521 6.43923 12.0216 6.34375 11.7812 6.34375C11.5409 6.34375 11.3104 6.43923 11.1404 6.60918C10.9705 6.77914 10.875 7.00965 10.875 7.25C10.875 7.49035 10.9705 7.72086 11.1404 7.89082C11.3104 8.06077 11.5409 8.15625 11.7812 8.15625Z" fill="white"/>
</svg>
