<svg width="49" height="48" viewBox="0 0 49 48" fill="none" xmlns="http://www.w3.org/2000/svg">
<path d="M22.4583 48V27.1099H21.0972C18.1936 27.1099 15.4599 26.5578 12.8965 25.4535C10.3331 24.3493 8.05329 22.7831 6.05694 20.7549C4.06064 18.7268 2.55208 16.3831 1.53125 13.7239C0.510417 11.0647 0 8.29291 0 5.40845V0H5.33011C8.12856 0 10.8208 0.552108 13.4069 1.65634C15.9931 2.76057 18.3069 4.32676 20.3486 6.35493C21.8458 7.88728 23.0821 9.6 24.0576 11.493C25.0331 13.3859 25.725 15.3915 26.1333 17.5099C26.4804 16.9735 26.8619 16.4563 27.278 15.9583C27.6945 15.4603 28.1297 14.9634 28.5833 14.4676C30.625 12.4394 32.9389 10.8733 35.525 9.76901C38.1111 8.66474 40.8258 8.11268 43.6692 8.11268H49V13.5211C49 16.4056 48.456 19.1774 47.368 21.8366C46.2801 24.4958 44.737 26.8394 42.7389 28.8676C40.6972 30.8958 38.3933 32.4507 35.8272 33.5324C33.2611 34.6141 30.5742 35.1549 27.7667 35.1549H26.5417V48H22.4583ZM22.5264 22.9859C22.5264 20.2367 22.0727 17.6789 21.1653 15.3127C20.2578 12.9465 19.0102 10.9409 17.4222 9.29577C15.8342 7.65066 13.8833 6.36615 11.5694 5.44225C9.25556 4.51831 6.76023 4.05634 4.08333 4.05634C4.08333 6.89577 4.50301 9.49859 5.34236 11.8648C6.18176 14.231 7.39533 16.2479 8.98333 17.9155C10.8889 19.9437 12.9419 21.2958 15.1424 21.9718C17.3429 22.6479 19.8042 22.9859 22.5264 22.9859ZM26.5417 31.0986C29.2639 31.0986 31.7819 30.6592 34.0958 29.7803C36.4097 28.9014 38.3606 27.6395 39.9486 25.9944C41.5366 24.3493 42.7616 22.3437 43.6236 19.9775C44.4856 17.6113 44.9167 15.0085 44.9167 12.169C42.1944 12.169 39.6764 12.631 37.3625 13.5549C35.0486 14.4788 33.0977 15.7521 31.5097 17.3746C29.5588 19.4028 28.2431 21.5212 27.5625 23.7296C26.8819 25.938 26.5417 28.3944 26.5417 31.0986Z" fill="white"/>
</svg>
