<svg width="36" height="34" viewBox="0 0 36 34" fill="none" xmlns="http://www.w3.org/2000/svg">
<path d="M33.2721 6.27729H25.984V4.54787C25.984 2.4466 24.2747 0.743164 22.1663 0.743164H13.837C11.7286 0.743164 10.0193 2.4466 10.0193 4.54787V6.27729H2.73116C1.38943 6.27729 0.301758 7.36129 0.301758 8.69846V30.8349C0.301758 32.1721 1.38943 33.2561 2.73116 33.2561H33.2721C34.6139 33.2561 35.7016 32.1721 35.7016 30.8349V8.69846C35.7016 7.36133 34.6138 6.27735 33.2721 6.27729ZM2.38409 15.2702H33.6192V24.2632H2.38409V15.2702ZM12.1017 4.54787C12.1017 3.59275 12.8786 2.81847 13.837 2.81847H22.1663C23.1247 2.81847 23.9016 3.59275 23.9016 4.54787V6.27729H12.1017V4.54787ZM2.73116 8.35258H33.2721C33.4638 8.3526 33.6192 8.50744 33.6192 8.69846V13.1949H2.38409V8.69846C2.38409 8.50744 2.53947 8.35257 2.73116 8.35258ZM33.2721 31.1808H2.73116C2.53947 31.1808 2.38409 31.026 2.38409 30.8349V26.3385H33.6192V30.8349C33.6192 31.026 33.4638 31.1808 33.2721 31.1808Z" fill="white"/>
</svg>
