<svg width="26" height="19" viewBox="0 0 26 19" fill="none" xmlns="http://www.w3.org/2000/svg">
<path d="M24.5235 7.92943C24.8302 8.31179 25 8.80856 25 9.32364C25 9.83872 24.8302 10.3355 24.5235 10.7178C22.5814 13.0693 18.1606 17.6472 13 17.6472C7.83942 17.6472 3.41871 13.0693 1.47655 10.7178C1.1698 10.3355 1 9.83872 1 9.32364C1 8.80856 1.1698 8.31179 1.47655 7.92943C3.41871 5.578 7.83942 1 13 1C18.1606 1 22.5814 5.578 24.5235 7.92943Z" stroke="#2C6B3F" stroke-width="2" stroke-linecap="round" stroke-linejoin="round"/>
<path d="M13.0001 13.023C15.0432 13.023 16.6995 11.3667 16.6995 9.32361C16.6995 7.28052 15.0432 5.62427 13.0001 5.62427C10.957 5.62427 9.30078 7.28052 9.30078 9.32361C9.30078 11.3667 10.957 13.023 13.0001 13.023Z" stroke="#2C6B3F" stroke-width="2" stroke-linecap="round" stroke-linejoin="round"/>
</svg>
