<svg width="45" height="35" viewBox="0 0 45 35" fill="none" xmlns="http://www.w3.org/2000/svg">
<path d="M22.5 18.5294C26.3309 18.5294 29.8037 19.8051 32.348 21.5909C34.7688 23.29 36.8182 25.8137 36.8182 28.5293C36.8182 30.0207 36.187 31.2552 35.191 32.1749C34.254 33.0402 33.0306 33.6012 31.7706 33.985C29.252 34.7523 25.937 35 22.5 35C19.063 35 15.748 34.7523 13.2294 33.985C11.9694 33.6012 10.7459 33.0402 9.8089 32.1749C8.81307 31.2552 8.18182 30.0207 8.18182 28.5293C8.18182 25.8137 10.2312 23.29 12.6519 21.5909C15.1962 19.8051 18.6691 18.5294 22.5 18.5294ZM36.8182 20.5882C38.9547 20.5882 40.8933 21.2975 42.3272 22.3041C43.6375 23.2237 45 24.7547 45 26.6177C45 27.6825 44.5404 28.566 43.8552 29.1989C43.2286 29.7774 42.4544 30.1161 41.7498 30.3308C40.7882 30.6236 39.653 30.7736 38.4748 30.8395C38.725 30.1296 38.8636 29.357 38.8636 28.5293C38.8636 25.3682 36.902 22.6849 34.7071 20.8209C35.3794 20.6712 36.0871 20.5882 36.8182 20.5882ZM8.18182 20.5882C8.91276 20.5882 9.62059 20.6712 10.293 20.8209C8.09793 22.6849 6.13636 25.3682 6.13636 28.5293C6.13636 29.357 6.27511 30.1296 6.52514 30.8395C5.347 30.7736 4.21175 30.6236 3.25025 30.3308C2.54547 30.1161 1.77134 29.7774 1.14486 29.1989C0.459552 28.566 0 27.6825 0 26.6177C0 24.7547 1.36252 23.2237 2.67273 22.3041C4.10662 21.2975 6.04536 20.5882 8.18182 20.5882ZM35.7955 8.23529C38.6196 8.23529 40.9091 10.5397 40.9091 13.3824C40.9091 16.225 38.6196 18.5294 35.7955 18.5294C32.9713 18.5294 30.6818 16.225 30.6818 13.3824C30.6818 10.5397 32.9713 8.23529 35.7955 8.23529ZM9.20455 8.23529C12.0287 8.23529 14.3182 10.5397 14.3182 13.3824C14.3182 16.225 12.0287 18.5294 9.20455 18.5294C6.38037 18.5294 4.09091 16.225 4.09091 13.3824C4.09091 10.5397 6.38037 8.23529 9.20455 8.23529ZM22.5 0C27.0186 0 30.6818 3.68706 30.6818 8.23529C30.6818 12.7835 27.0186 16.4706 22.5 16.4706C17.9813 16.4706 14.3182 12.7835 14.3182 8.23529C14.3182 3.68706 17.9813 0 22.5 0Z" fill="white"/>
</svg>
