<svg width="21" height="40" viewBox="0 0 21 40" fill="none" xmlns="http://www.w3.org/2000/svg">
<path d="M7.28676 1H13.8544M1.54004 16.6957H2.361L4.04725 16.9782C8.36636 17.7025 12.7748 17.7025 17.0939 16.9782L18.7802 16.6957H19.6012M1.54004 28.2609H2.361L4.04725 27.9783C8.36636 27.254 12.7748 27.254 17.0939 27.9783L18.7802 28.2609H19.6012M13.0335 5.95652H8.10772C6.13423 6.94941 4.47451 8.47567 3.31451 10.3643C2.15451 12.2529 1.54007 14.4292 1.54004 16.6494V35.6957C1.54004 36.572 1.88601 37.4125 2.50185 38.0322C3.11769 38.6519 3.95295 39 4.82388 39H16.3173C17.1882 39 18.0235 38.6519 18.6393 38.0322C19.2552 37.4125 19.6012 36.572 19.6012 35.6957V16.6494C19.6011 14.4292 18.9867 12.2529 17.8267 10.3643C16.6667 8.47567 15.007 6.94941 13.0335 5.95652Z" stroke="white" stroke-width="2"/>
</svg>
