<svg width="23" height="43" viewBox="0 0 23 43" fill="none" xmlns="http://www.w3.org/2000/svg">
<path d="M7.91658 0.895996H15.0833M1.64575 17.9168H2.54159L4.38163 18.2232C9.09465 19.0087 13.9052 19.0087 18.6182 18.2232L20.4583 17.9168H21.3541M1.64575 30.4585H2.54159L4.38163 30.1521C9.09465 29.3667 13.9052 29.3667 18.6182 30.1521L20.4583 30.4585H21.3541M14.1874 6.271H8.81242C6.65895 7.34772 4.84785 9.00283 3.58205 11.0509C2.31626 13.0989 1.64578 15.459 1.64575 17.8667V38.521C1.64575 39.4714 2.02328 40.3828 2.69529 41.0548C3.36729 41.7268 4.27873 42.1043 5.22908 42.1043H17.7708C18.7211 42.1043 19.6325 41.7268 20.3045 41.0548C20.9766 40.3828 21.3541 39.4714 21.3541 38.521V17.8667C21.3541 15.459 20.6836 13.0989 19.4178 11.0509C18.152 9.00283 16.3409 7.34772 14.1874 6.271Z" stroke="#2C6B3F" stroke-width="2"/>
</svg>
