<svg width="52" height="52" viewBox="0 0 52 52" fill="none" xmlns="http://www.w3.org/2000/svg">
<path d="M34.125 46.3125V28.0312C34.125 25.1587 34.125 23.7224 33.2327 22.8298C32.3401 21.9375 30.9038 21.9375 28.0312 21.9375H23.9688C21.0961 21.9375 19.6598 21.9375 18.7674 22.8298C17.875 23.7224 17.875 25.1587 17.875 28.0312M17.875 46.3125V36.1562" stroke="white" stroke-width="2" stroke-linecap="round"/>
<path d="M17.875 46.3125C17.875 43.4399 17.875 42.0036 16.9826 41.1111C16.0902 40.2188 14.6539 40.2188 11.7812 40.2188C8.90864 40.2188 7.47232 40.2188 6.57991 41.1111C5.6875 42.0036 5.6875 43.4399 5.6875 46.3125" stroke="white" stroke-width="2" stroke-linecap="round"/>
<path d="M46.3125 46.3125V40.2188C46.3125 37.3462 46.3125 35.9099 45.4202 35.0173C44.5276 34.125 43.0913 34.125 40.2188 34.125C37.3462 34.125 35.9099 34.125 35.0173 35.0173C34.125 35.9099 34.125 37.3462 34.125 40.2188V46.3125" stroke="white" stroke-width="2" stroke-linecap="round"/>
<path d="M24.2651 7.76447C25.037 6.37983 25.4229 5.6875 26 5.6875C26.5771 5.6875 26.963 6.37983 27.7349 7.76447L27.9346 8.1227C28.1537 8.51618 28.2634 8.71293 28.4344 8.84272C28.6055 8.97254 28.8184 9.02072 29.2443 9.11708L29.6321 9.20483C31.1309 9.54397 31.8805 9.71354 32.0588 10.2869C32.2372 10.8603 31.7261 11.4577 30.7044 12.6526L30.4399 12.9618C30.1496 13.3013 30.0044 13.4711 29.939 13.6811C29.8738 13.8911 29.8957 14.1177 29.9396 14.5707L29.9796 14.9831C30.134 16.5774 30.2114 17.3745 29.7446 17.7289C29.2776 18.0832 28.576 17.7602 27.1726 17.114L26.8097 16.9468C26.4107 16.7632 26.2114 16.6714 26 16.6714C25.7885 16.6714 25.5893 16.7632 25.1903 16.9468L24.8274 17.114C23.424 17.7602 22.7224 18.0832 22.2554 17.7289C21.7887 17.3745 21.8659 16.5774 22.0204 14.9831L22.0604 14.5707C22.1043 14.1177 22.1262 13.8911 22.061 13.6811C21.9956 13.4711 21.8504 13.3013 21.56 12.9618L21.2957 12.6526C20.2738 11.4577 19.7629 10.8603 19.9412 10.2869C20.1195 9.71354 20.869 9.54397 22.3679 9.20483L22.7557 9.11708C23.1816 9.02072 23.3945 8.97254 23.5655 8.84272C23.7366 8.71293 23.8463 8.51618 24.0654 8.1227L24.2651 7.76447Z" stroke="white" stroke-width="2"/>
</svg>
