<svg width="38" height="42" viewBox="0 0 38 42" fill="none" xmlns="http://www.w3.org/2000/svg">
<path d="M19 2.625C20.7405 2.625 22.4097 3.3164 23.6404 4.54711C24.8711 5.77782 25.5625 7.44702 25.5625 9.1875V10.5H12.4375V9.1875C12.4375 7.44702 13.1289 5.77782 14.3596 4.54711C15.5903 3.3164 17.2595 2.625 19 2.625ZM28.1875 10.5V9.1875C28.1875 6.75082 27.2195 4.41395 25.4965 2.69096C23.7736 0.967966 21.4367 0 19 0C16.5633 0 14.2264 0.967966 12.5035 2.69096C10.7805 4.41395 9.8125 6.75082 9.8125 9.1875V10.5H0.625V36.75C0.625 38.1424 1.17812 39.4777 2.16269 40.4623C3.14726 41.4469 4.48261 42 5.875 42H32.125C33.5174 42 34.8527 41.4469 35.8373 40.4623C36.8219 39.4777 37.375 38.1424 37.375 36.75V10.5H28.1875ZM3.25 13.125H34.75V36.75C34.75 37.4462 34.4734 38.1139 33.9812 38.6062C33.4889 39.0984 32.8212 39.375 32.125 39.375H5.875C5.17881 39.375 4.51113 39.0984 4.01884 38.6062C3.52656 38.1139 3.25 37.4462 3.25 36.75V13.125Z" fill="#2C6B3F"/>
</svg>
