<svg width="20" height="20" viewBox="0 0 20 20" fill="none" xmlns="http://www.w3.org/2000/svg">
<path d="M19.8438 18.8274L14.4157 13.3993C15.7201 11.8334 16.3705 9.82497 16.2317 7.79174C16.0929 5.75851 15.1755 3.85706 13.6705 2.48295C12.1655 1.10883 10.1886 0.367856 8.15118 0.414155C6.11374 0.460454 4.17258 1.29047 2.73152 2.73152C1.29047 4.17258 0.460454 6.11374 0.414155 8.15118C0.367856 10.1886 1.10883 12.1655 2.48295 13.6705C3.85706 15.1755 5.75851 16.0929 7.79174 16.2317C9.82497 16.3705 11.8334 15.7201 13.3993 14.4157L18.8274 19.8438L19.8438 18.8274ZM1.87505 8.3438C1.87505 7.0644 2.25443 5.81373 2.96523 4.74995C3.67602 3.68617 4.68631 2.85706 5.86831 2.36745C7.05032 1.87785 8.35097 1.74975 9.60579 1.99934C10.8606 2.24894 12.0132 2.86503 12.9179 3.7697C13.8226 4.67437 14.4387 5.82699 14.6883 7.08181C14.9379 8.33662 14.8097 9.63727 14.3201 10.8193C13.8305 12.0013 13.0014 13.0116 11.9376 13.7224C10.8739 14.4332 9.6232 14.8125 8.3438 14.8125C6.62876 14.8106 4.98452 14.1285 3.7718 12.9158C2.55909 11.7031 1.87695 10.0588 1.87505 8.3438Z" fill="#2C6B3F" fill-opacity="0.8"/>
</svg>
