<svg width="26" height="26" viewBox="0 0 26 26" fill="none" xmlns="http://www.w3.org/2000/svg">
<path d="M13 26C11.2016 26 9.51165 25.6587 7.93 24.9762C6.34836 24.2937 4.9725 23.3675 3.8025 22.1975C2.6325 21.0275 1.70625 19.6516 1.02375 18.07C0.34125 16.4884 0 14.7984 0 13C0 11.2016 0.34125 9.51165 1.02375 7.93C1.70625 6.34836 2.6325 4.9725 3.8025 3.8025C4.9725 2.6325 6.34836 1.70625 7.93 1.02375C9.51165 0.34125 11.2016 0 13 0C14.7984 0 16.4884 0.34125 18.07 1.02375C19.6516 1.70625 21.0275 2.6325 22.1975 3.8025C23.3675 4.9725 24.2937 6.34836 24.9762 7.93C25.6587 9.51165 26 11.2016 26 13C26 14.7984 25.6587 16.4884 24.9762 18.07C24.2937 19.6516 23.3675 21.0275 22.1975 22.1975C21.0275 23.3675 19.6516 24.2937 18.07 24.9762C16.4884 25.6587 14.7984 26 13 26ZM13 24.05C16.0849 24.05 18.6978 22.9796 20.8387 20.8387C22.9796 18.6976 24.05 16.0847 24.05 13C24.05 9.9151 22.9796 7.30223 20.8387 5.16132C18.6978 3.02044 16.0849 1.95 13 1.95C9.91529 1.95 7.30242 3.02044 5.16132 5.16132C3.02044 7.30223 1.95 9.9151 1.95 13C1.95 16.0847 3.02044 18.6976 5.16132 20.8387C7.30242 22.9796 9.91529 24.05 13 24.05ZM13 20.8C10.8334 20.8 8.99164 20.0416 7.475 18.525C5.95835 17.0084 5.2 15.1666 5.2 13C5.2 10.8334 5.95835 8.99164 7.475 7.475C8.99164 5.95835 10.8334 5.2 13 5.2C15.1666 5.2 17.0084 5.95835 18.525 7.475C20.0416 8.99164 20.8 10.8334 20.8 13C20.8 15.1666 20.0416 17.0084 18.525 18.525C17.0084 20.0416 15.1666 20.8 13 20.8ZM13 18.85C14.625 18.85 16.0062 18.2812 17.1437 17.1437C18.2812 16.0062 18.85 14.625 18.85 13C18.85 11.375 18.2812 9.99375 17.1437 8.85625C16.0062 7.71875 14.625 7.15 13 7.15C11.375 7.15 9.99375 7.71875 8.85625 8.85625C7.71875 9.99375 7.15 11.375 7.15 13C7.15 14.625 7.71875 16.0062 8.85625 17.1437C9.99375 18.2812 11.375 18.85 13 18.85ZM13 15.6C12.285 15.6 11.6729 15.3454 11.1637 14.8363C10.6546 14.3271 10.4 13.715 10.4 13C10.4 12.285 10.6546 11.6729 11.1637 11.1637C11.6729 10.6546 12.285 10.4 13 10.4C13.715 10.4 14.3271 10.6546 14.8363 11.1637C15.3454 11.6729 15.6 12.285 15.6 13C15.6 13.715 15.3454 14.3271 14.8363 14.8363C14.3271 15.3454 13.715 15.6 13 15.6Z" fill="#2C6B3F"/>
</svg>
