<svg width="16" height="16" viewBox="0 0 16 16" fill="none" xmlns="http://www.w3.org/2000/svg">
<mask id="path-1-inside-1_151_1111" fill="white">
<path d="M0.906236 13.8707C0.608769 14.1682 0.925635 14.9673 1.2231 15.2647C1.52057 15.5622 2.00287 15.5622 2.30033 15.2647L0.906236 13.8707ZM2.30033 15.2647L14.4878 3.07723L13.4106 2L7 7.77692L0.906236 13.8707L2.30033 15.2647Z"/>
</mask>
<path d="M0.906236 13.8707C0.608769 14.1682 0.925635 14.9673 1.2231 15.2647C1.52057 15.5622 2.00287 15.5622 2.30033 15.2647L0.906236 13.8707ZM2.30033 15.2647L14.4878 3.07723L13.4106 2L7 7.77692L0.906236 13.8707L2.30033 15.2647Z" fill="white"/>
<path d="M2.30033 15.2647L4.06806 13.4969L2.67396 12.1029L0.906236 13.8707L-0.861492 15.6385L0.532606 17.0325L2.30033 15.2647ZM0.906236 13.8707L-2.6293 10.3352L-2.62936 10.3352L0.906236 13.8707ZM2.30033 15.2647L-1.23521 11.7292L-1.23526 11.7293L2.30033 15.2647ZM14.4878 3.07723L18.0233 6.61276L21.5588 3.07733L18.0234 -0.458197L14.4878 3.07723ZM13.4106 2L16.9463 -1.53543L13.5898 -4.8921L10.0635 -1.71435L13.4106 2ZM7 7.77692L3.65283 4.06257L3.55632 4.14953L3.46446 4.24139L7 7.77692ZM0.906236 13.8707L-2.62936 10.3352C-3.85441 11.5603 -4.14921 13.0057 -4.20212 13.8648C-4.25568 14.7343 -4.10266 15.4686 -3.96191 15.9558C-3.7083 16.8334 -3.19477 17.9179 -2.31249 18.8002L1.2231 15.2647L4.7587 11.7293C5.11244 12.083 5.30136 12.3976 5.38548 12.5503C5.48475 12.7304 5.57456 12.9358 5.64504 13.1797C5.70658 13.3927 5.81756 13.8529 5.77896 14.4796C5.74101 15.0958 5.51815 16.3298 4.44183 17.4062L0.906236 13.8707ZM1.2231 15.2647L-2.31249 18.8002C-0.0623908 21.0504 3.58583 21.0504 5.83593 18.8002L2.30033 15.2647L-1.23526 11.7293C0.419909 10.074 3.10353 10.074 4.7587 11.7293L1.2231 15.2647ZM2.30033 15.2647L5.83587 18.8003L18.0233 6.61276L14.4878 3.07723L10.9523 -0.458295L-1.23521 11.7292L2.30033 15.2647ZM14.4878 3.07723L18.0234 -0.458197L16.9463 -1.53543L13.4106 2L9.875 5.53543L10.9522 6.61266L14.4878 3.07723ZM13.4106 2L10.0635 -1.71435L3.65283 4.06257L7 7.77692L10.3472 11.4913L16.7578 5.71435L13.4106 2ZM7 7.77692L3.46446 4.24139L-2.6293 10.3352L0.906236 13.8707L4.44178 17.4062L10.5355 11.3124L7 7.77692Z" fill="white" mask="url(#path-1-inside-1_151_1111)"/>
<path d="M4.95312 1.90625H14.0938V11.0469" stroke="white" stroke-width="2" stroke-linecap="round" stroke-linejoin="round"/>
</svg>
