<svg width="26" height="26" viewBox="0 0 26 26" fill="none" xmlns="http://www.w3.org/2000/svg">
<path d="M13.13 20.5725C13.4766 20.5725 13.7691 20.4534 14.0075 20.215C14.2459 19.9766 14.365 19.6841 14.365 19.3375C14.365 18.9909 14.2459 18.6984 14.0075 18.46C13.7691 18.2216 13.4766 18.1025 13.13 18.1025C12.7834 18.1025 12.4909 18.2216 12.2525 18.46C12.0141 18.6984 11.895 18.9909 11.895 19.3375C11.895 19.6841 12.0141 19.9766 12.2525 20.215C12.4909 20.4534 12.7834 20.5725 13.13 20.5725ZM11.9925 15.8275H13.91C13.91 15.2641 13.9804 14.7496 14.1213 14.2837C14.2621 13.8179 14.7009 13.2816 15.4375 12.675C16.1091 12.1116 16.5859 11.5591 16.8675 11.0175C17.1491 10.4759 17.29 9.88 17.29 9.23C17.29 8.08165 16.9163 7.16085 16.1687 6.4675C15.4212 5.77414 14.43 5.4275 13.195 5.4275C12.1334 5.4275 11.1962 5.69289 10.3837 6.22375C9.57125 6.7546 8.98085 7.48586 8.6125 8.4175L10.335 9.0675C10.5734 8.46086 10.9309 7.9896 11.4075 7.65375C11.8841 7.31789 12.4475 7.15 13.0975 7.15C13.8341 7.15 14.43 7.35039 14.885 7.75125C15.34 8.1521 15.5675 8.66664 15.5675 9.295C15.5675 9.77164 15.4266 10.2212 15.145 10.6437C14.8634 11.0662 14.4516 11.505 13.91 11.96C13.26 12.5234 12.7779 13.0813 12.4637 13.6337C12.1496 14.1862 11.9925 14.9175 11.9925 15.8275ZM13 26C11.2234 26 9.54414 25.6587 7.9625 24.9762C6.38085 24.2937 4.9996 23.3621 3.81875 22.1812C2.63791 21.0004 1.70625 19.6191 1.02375 18.0375C0.34125 16.4559 0 14.7766 0 13C0 11.2016 0.34125 9.51165 1.02375 7.93C1.70625 6.34836 2.63791 4.9725 3.81875 3.8025C4.9996 2.6325 6.38085 1.70625 7.9625 1.02375C9.54414 0.34125 11.2234 0 13 0C14.7984 0 16.4884 0.34125 18.07 1.02375C19.6516 1.70625 21.0275 2.6325 22.1975 3.8025C23.3675 4.9725 24.2937 6.34836 24.9762 7.93C25.6587 9.51165 26 11.2016 26 13C26 14.7766 25.6587 16.4559 24.9762 18.0375C24.2937 19.6191 23.3675 21.0004 22.1975 22.1812C21.0275 23.3621 19.6516 24.2937 18.07 24.9762C16.4884 25.6587 14.7984 26 13 26Z" fill="#66BB6A"/>
</svg>
