<svg width="23" height="29" viewBox="0 0 23 29" fill="none" xmlns="http://www.w3.org/2000/svg">
<path fill-rule="evenodd" clip-rule="evenodd" d="M5.45071 6.43466C5.45071 4.83038 6.088 3.29182 7.2224 2.15743C8.35679 1.02304 9.89535 0.385742 11.4996 0.385742C13.1039 0.385742 14.6425 1.02304 15.7769 2.15743C16.9112 3.29182 17.5485 4.83038 17.5485 6.43466C17.5485 8.03893 16.9112 9.57749 15.7769 10.7119C14.6425 11.8463 13.1039 12.4836 11.4996 12.4836C9.89535 12.4836 8.35679 11.8463 7.2224 10.7119C6.088 9.57749 5.45071 8.03893 5.45071 6.43466ZM0.411293 25.3946C0.45662 22.4837 1.64479 19.7074 3.71932 17.6649C5.79386 15.6224 8.58836 14.4776 11.4996 14.4776C14.4109 14.4776 17.2054 15.6224 19.2799 17.6649C21.3545 19.7074 22.5426 22.4837 22.588 25.3946C22.5914 25.5906 22.5377 25.7833 22.4334 25.9493C22.3291 26.1152 22.1787 26.2471 22.0005 26.3289C18.7061 27.8393 15.1238 28.6189 11.4996 28.614C7.75467 28.614 4.19657 27.7967 0.99871 26.3289C0.820584 26.2471 0.670153 26.1152 0.565826 25.9493C0.461498 25.7833 0.407797 25.5906 0.411293 25.3946Z" fill="#6B7280"/>
</svg>
