<svg width="25" height="29" viewBox="0 0 25 29" fill="none" xmlns="http://www.w3.org/2000/svg">
<path d="M5.32875 0C2.38684 0 0 2.38684 0 5.32875V23.0912C0 26.0332 2.38684 28.42 5.32875 28.42H23.0912C24.0737 28.42 24.8675 27.6262 24.8675 26.6437C24.8675 25.6613 24.0737 24.8675 23.0912 24.8675V21.315C24.0737 21.315 24.8675 20.5212 24.8675 19.5387V1.77625C24.8675 0.793765 24.0737 0 23.0912 0H5.32875ZM5.32875 21.315H19.5387V24.8675H5.32875C4.34626 24.8675 3.5525 24.0737 3.5525 23.0912C3.5525 22.1088 4.34626 21.315 5.32875 21.315ZM7.105 7.99313C7.105 7.50466 7.50466 7.105 7.99313 7.105H18.6506C19.1391 7.105 19.5387 7.50466 19.5387 7.99313C19.5387 8.48159 19.1391 8.88125 18.6506 8.88125H7.99313C7.50466 8.88125 7.105 8.48159 7.105 7.99313ZM7.99313 10.6575H18.6506C19.1391 10.6575 19.5387 11.0572 19.5387 11.5456C19.5387 12.0341 19.1391 12.4338 18.6506 12.4338H7.99313C7.50466 12.4338 7.105 12.0341 7.105 11.5456C7.105 11.0572 7.50466 10.6575 7.99313 10.6575Z" fill="#66BB6A"/>
</svg>
