<svg width="83" height="83" viewBox="0 0 83 83" fill="none" xmlns="http://www.w3.org/2000/svg">
<path d="M25.2872 23.2438C24.7231 24.1368 23.9703 24.8954 23.0819 25.4666C22.1934 26.0378 21.1907 26.4077 20.1441 26.5503C18.9532 26.7195 17.7716 26.9013 16.5901 27.0988C13.2898 27.6472 10.9424 30.5526 10.9424 33.8967V60.3047C10.9424 62.175 11.6853 63.9686 13.0078 65.2911C14.3303 66.6135 16.1239 67.3565 17.9941 67.3565H65.0059C66.8761 67.3565 68.6697 66.6135 69.9922 65.2911C71.3147 63.9686 72.0576 62.175 72.0576 60.3047V33.8967C72.0576 30.5526 69.707 27.6472 66.4099 27.0988C65.2275 26.9018 64.0427 26.7189 62.8559 26.5503C61.8098 26.4073 60.8078 26.0372 59.9199 25.466C59.032 24.8948 58.2798 24.1364 57.7159 23.2438L55.1397 19.1193C54.5611 18.1794 53.7645 17.3927 52.8174 16.8259C51.8703 16.2591 50.8006 15.9288 49.6988 15.863C44.2369 15.5696 38.7631 15.5696 33.3012 15.863C32.1994 15.9288 31.1297 16.2591 30.1826 16.8259C29.2355 17.3927 28.4389 18.1794 27.8603 19.1193L25.2872 23.2438Z" stroke="#6B7280" stroke-width="3" stroke-linecap="round" stroke-linejoin="round"/>
<path d="M55.6035 43.8506C55.6035 45.7027 55.2387 47.5366 54.53 49.2478C53.8212 50.9589 52.7823 52.5136 51.4727 53.8233C50.1631 55.1329 48.6083 56.1718 46.8972 56.8805C45.1861 57.5893 43.3521 57.9541 41.5 57.9541C39.6479 57.9541 37.8139 57.5893 36.1028 56.8805C34.3917 56.1718 32.8369 55.1329 31.5273 53.8233C30.2177 52.5136 29.1788 50.9589 28.4701 49.2478C27.7613 47.5366 27.3965 45.7027 27.3965 43.8506C27.3965 40.1101 28.8824 36.5228 31.5273 33.8779C34.1722 31.233 37.7595 29.7471 41.5 29.7471C45.2405 29.7471 48.8278 31.233 51.4727 33.8779C54.1176 36.5228 55.6035 40.1101 55.6035 43.8506ZM62.6553 36.7988H62.6803V36.8239H62.6553V36.7988Z" stroke="#6B7280" stroke-width="3" stroke-linecap="round" stroke-linejoin="round"/>
</svg>
