<svg width="28" height="25" viewBox="0 0 28 25" fill="none" xmlns="http://www.w3.org/2000/svg">
<path fill-rule="evenodd" clip-rule="evenodd" d="M22 13.75C20.6708 12.627 19.4219 11.4239 18.2531 10.1406C17.0844 8.8573 16.5 7.35625 16.5 5.6375C16.5 4.07917 17.0328 2.75 18.0984 1.65C19.1641 0.55 20.4645 0 22 0C23.5355 0 24.8359 0.55 25.9016 1.65C26.9672 2.75 27.5 4.07917 27.5 5.6375C27.5 7.35625 26.9156 8.8573 25.7469 10.1406C24.5781 11.4239 23.3292 12.627 22 13.75ZM22 6.875C22.4125 6.875 22.762 6.73177 23.0484 6.44531C23.335 6.15886 23.4781 5.80938 23.4781 5.39688C23.4781 5.0073 23.335 4.66355 23.0484 4.36563C22.762 4.0677 22.4125 3.91875 22 3.91875C21.5875 3.91875 21.2381 4.0677 20.9516 4.36563C20.6651 4.66355 20.5219 5.0073 20.5219 5.39688C20.5219 5.80938 20.6651 6.15886 20.9516 6.44531C21.2381 6.73177 21.5875 6.875 22 6.875ZM20.0127 16.7273L13.1377 21.3106L11.6123 19.0224L18.4873 14.4391L20.0127 16.7273ZM1.75313 21.1406C2.92188 22.4239 4.17083 23.627 5.5 24.75C6.82917 23.627 8.07813 22.4239 9.24688 21.1406C10.4156 19.8573 11 18.3563 11 16.6375C11 15.0792 10.4672 13.75 9.40156 12.65C8.33594 11.55 7.03542 11 5.5 11C3.96458 11 2.66406 11.55 1.59844 12.65C0.532812 13.75 0 15.0792 0 16.6375C0 18.3563 0.584375 19.8573 1.75313 21.1406ZM6.54851 17.4453C6.26204 17.7317 5.91257 17.875 5.50007 17.875C5.08757 17.875 4.73808 17.7317 4.45163 17.4453C4.16518 17.1589 4.02194 16.8094 4.02194 16.3969C4.02194 16.0073 4.16518 15.6636 4.45163 15.3656C4.73808 15.0677 5.08757 14.9188 5.50007 14.9188C5.91257 14.9188 6.26204 15.0677 6.54851 15.3656C6.83496 15.6636 6.97819 16.0073 6.97819 16.3969C6.97819 16.8094 6.83496 17.1589 6.54851 17.4453Z" fill="#2C6B3F"/>
</svg>
