<svg width="25" height="25" viewBox="0 0 25 25" fill="none" xmlns="http://www.w3.org/2000/svg">
<path d="M12.5 25C10.75 25 9.11456 24.6719 7.59375 24.0156C6.07294 23.3594 4.75 22.4688 3.625 21.3438C2.5 20.2188 1.61458 18.8906 0.96875 17.3594C0.322919 15.8281 0 14.1875 0 12.4375C0 10.6875 0.322919 9.05731 0.96875 7.54688C1.61458 6.03644 2.5 4.71875 3.625 3.59375C4.75 2.46875 6.07294 1.58854 7.59375 0.953125C9.11456 0.317706 10.75 0 12.5 0C14.25 0 15.8854 0.317706 17.4062 0.953125C18.9271 1.58854 20.25 2.46875 21.375 3.59375C22.5 4.71875 23.3854 6.03644 24.0312 7.54688C24.6771 9.05731 25 10.6875 25 12.4375C25 14.1875 24.6771 15.8281 24.0312 17.3594C23.3854 18.8906 22.5 20.2188 21.375 21.3438C20.25 22.4688 18.9271 23.3594 17.4062 24.0156C15.8854 24.6719 14.25 25 12.5 25ZM12.5 23.1875C13.2292 22.4375 13.8386 21.5781 14.3281 20.6094C14.8177 19.6406 15.2188 18.4896 15.5312 17.1562H9.5C9.79169 18.4062 10.1823 19.5312 10.6719 20.5312C11.1614 21.5312 11.7708 22.4167 12.5 23.1875ZM9.84375 22.8125C9.32294 22.0208 8.875 21.1667 8.5 20.25C8.125 19.3333 7.8125 18.3021 7.5625 17.1562H2.875C3.66667 18.6354 4.58331 19.7969 5.625 20.6406C6.66669 21.4844 8.07294 22.2083 9.84375 22.8125ZM15.1875 22.7812C16.6875 22.3021 18.0364 21.5833 19.2344 20.625C20.4323 19.6667 21.3958 18.5104 22.125 17.1562H17.4688C17.1979 18.2812 16.8802 19.3021 16.5156 20.2188C16.1511 21.1354 15.7083 21.9896 15.1875 22.7812ZM2.25 15.2812H7.21875C7.15625 14.7188 7.11981 14.2136 7.10938 13.7656C7.09894 13.3177 7.09375 12.875 7.09375 12.4375C7.09375 11.9167 7.10419 11.4531 7.125 11.0469C7.14581 10.6406 7.1875 10.1875 7.25 9.6875H2.25C2.10417 10.1875 2.00521 10.6354 1.95312 11.0312C1.90104 11.4271 1.875 11.8958 1.875 12.4375C1.875 12.9792 1.90104 13.4636 1.95312 13.8906C2.00521 14.3177 2.10417 14.7812 2.25 15.2812ZM9.15625 15.2812H15.875C15.9583 14.6354 16.0104 14.1094 16.0312 13.7031C16.0521 13.2969 16.0625 12.875 16.0625 12.4375C16.0625 12.0208 16.0521 11.6198 16.0312 11.2344C16.0104 10.8489 15.9583 10.3333 15.875 9.6875H9.15625C9.07294 10.3333 9.02081 10.8489 9 11.2344C8.97919 11.6198 8.96875 12.0208 8.96875 12.4375C8.96875 12.875 8.97919 13.2969 9 13.7031C9.02081 14.1094 9.07294 14.6354 9.15625 15.2812ZM17.75 15.2812H22.75C22.8958 14.7812 22.9948 14.3177 23.0469 13.8906C23.0989 13.4636 23.125 12.9792 23.125 12.4375C23.125 11.8958 23.0989 11.4271 23.0469 11.0312C22.9948 10.6354 22.8958 10.1875 22.75 9.6875H17.7812C17.8438 10.4167 17.8854 10.9739 17.9062 11.3594C17.9271 11.7448 17.9375 12.1042 17.9375 12.4375C17.9375 12.8958 17.9219 13.3281 17.8906 13.7344C17.8594 14.1406 17.8125 14.6562 17.75 15.2812ZM17.4375 7.8125H22.125C21.4375 6.375 20.4948 5.17706 19.2969 4.21875C18.0989 3.26042 16.7188 2.58333 15.1562 2.1875C15.6771 2.95833 16.1198 3.79169 16.4844 4.6875C16.8489 5.58331 17.1667 6.625 17.4375 7.8125ZM9.5 7.8125H15.5625C15.3333 6.70831 14.9479 5.64062 14.4062 4.60938C13.8646 3.57812 13.2292 2.66667 12.5 1.875C11.8333 2.4375 11.2708 3.17708 10.8125 4.09375C10.3542 5.01044 9.91669 6.25 9.5 7.8125ZM2.875 7.8125H7.59375C7.82294 6.6875 8.11456 5.68231 8.46875 4.79688C8.82294 3.91144 9.27081 3.05208 9.8125 2.21875C8.25 2.61458 6.88544 3.28125 5.71875 4.21875C4.55206 5.15625 3.60417 6.35419 2.875 7.8125Z" fill="#6B7280"/>
</svg>
