<svg width="21" height="25" viewBox="0 0 21 25" fill="none" xmlns="http://www.w3.org/2000/svg">
<path fill-rule="evenodd" clip-rule="evenodd" d="M0.00134049 17.9683C0.00134049 18.1755 0.080348 18.3742 0.220982 18.5207C0.361617 18.6672 0.552358 18.7495 0.751245 18.7495H18.4385L13.7186 23.6647C13.5778 23.8114 13.4987 24.0104 13.4987 24.2178C13.4987 24.4253 13.5778 24.6242 13.7186 24.7709C13.8594 24.9176 14.0504 25 14.2495 25C14.4487 25 14.6396 24.9176 14.7805 24.7709L20.7797 18.5214C20.8495 18.4488 20.9049 18.3626 20.9427 18.2677C20.9805 18.1728 21 18.0711 21 17.9683C21 17.8656 20.9805 17.7638 20.9427 17.6689C20.9049 17.574 20.8495 17.4878 20.7797 17.4152L14.7805 11.1657C14.6396 11.019 14.4487 10.9366 14.2495 10.9366C14.0504 10.9366 13.8594 11.019 13.7186 11.1657C13.5778 11.3124 13.4987 11.5114 13.4987 11.7188C13.4987 11.9263 13.5778 12.1252 13.7186 12.2719L18.4385 17.1871H0.751245C0.552358 17.1871 0.361617 17.2694 0.220982 17.4159C0.080348 17.5624 0.00134049 17.7611 0.00134049 17.9683ZM20.9987 7.03168C20.9987 7.23887 20.9197 7.43756 20.779 7.58407C20.6384 7.73057 20.4476 7.81287 20.2488 7.81287H2.56151L7.28141 12.7281C7.35113 12.8007 7.40644 12.887 7.44418 12.9819C7.48191 13.0768 7.50133 13.1785 7.50133 13.2812C7.50133 13.3839 7.48191 13.4856 7.44418 13.5805C7.40644 13.6754 7.35113 13.7616 7.28141 13.8343C7.21169 13.9069 7.12891 13.9645 7.03782 14.0038C6.94672 14.0431 6.84908 14.0634 6.75048 14.0634C6.65188 14.0634 6.55424 14.0431 6.46314 14.0038C6.37204 13.9645 6.28927 13.9069 6.21955 13.8343L0.220313 7.58476C0.150477 7.5122 0.0950694 7.42599 0.0572646 7.33109C0.0194597 7.23618 0 7.13444 0 7.03168C0 6.92893 0.0194597 6.82719 0.0572646 6.73228C0.0950694 6.63737 0.150477 6.55117 0.220313 6.4786L6.21955 0.229094C6.36036 0.0824075 6.55134 0 6.75048 0C6.94962 0 7.1406 0.0824075 7.28141 0.229094C7.42222 0.37578 7.50133 0.574729 7.50133 0.782175C7.50133 0.989621 7.42222 1.18857 7.28141 1.33526L2.56151 6.25049H20.2488C20.4476 6.25049 20.6384 6.3328 20.779 6.4793C20.9197 6.6258 20.9987 6.8245 20.9987 7.03168Z" fill="white"/>
</svg>
