<svg width="37" height="34" viewBox="0 0 37 34" fill="none" xmlns="http://www.w3.org/2000/svg">
<path d="M33.4074 16.36V30.44C33.4074 31.119 33.1343 31.7701 32.6481 32.2502C32.1619 32.7303 31.5024 33 30.8148 33H6.18519C5.49759 33 4.83815 32.7303 4.35195 32.2502C3.86574 31.7701 3.59259 31.119 3.59259 30.44V16.36M17.8519 5.48C17.8519 4.59394 17.5858 3.72778 17.0872 2.99105C16.5887 2.25431 15.8801 1.6801 15.0511 1.34102C14.222 1.00194 13.3098 0.913222 12.4297 1.08608C11.5496 1.25895 10.7412 1.68562 10.1066 2.31216C9.47213 2.9387 9.04002 3.73696 8.86496 4.606C8.68989 5.47503 8.77974 6.37581 9.12314 7.19442C9.46654 8.01304 10.0481 8.71272 10.7942 9.20499C11.5403 9.69725 12.4175 9.96 13.3148 9.96H17.8519M17.8519 5.48V9.96M17.8519 5.48C17.8519 4.59394 18.1179 3.72778 18.6165 2.99105C19.115 2.25431 19.8236 1.6801 20.6526 1.34102C21.4817 1.00194 22.3939 0.913222 23.274 1.08608C24.1541 1.25895 24.9625 1.68562 25.5971 2.31216C26.2316 2.9387 26.6637 3.73696 26.8387 4.606C27.0138 5.47503 26.924 6.37581 26.5806 7.19442C26.2372 8.01304 25.6556 8.71272 24.9095 9.20499C24.1634 9.69725 23.2862 9.96 22.3889 9.96H17.8519M17.8519 9.96V33M2.94444 16.36H34.0556C35.1289 16.36 36 15.4998 36 14.44V11.88C36 10.8202 35.1289 9.96 34.0556 9.96H2.94444C1.87111 9.96 1 10.8202 1 11.88V14.44C1 15.4998 1.87111 16.36 2.94444 16.36Z" stroke="#2C6B3F" stroke-width="2" stroke-linecap="round" stroke-linejoin="round"/>
</svg>
