<svg width="43" height="50" viewBox="0 0 43 50" fill="none" xmlns="http://www.w3.org/2000/svg">
<path d="M41 30.9985C38 36.999 38 42.6655 38 47.9999H26C26 42.6655 26 36.999 23 30.9985M23 23.9979H16.708C15.9086 23.9979 15.1275 23.7584 14.4655 23.3103C13.8035 22.8621 13.291 22.2259 12.994 21.4837L10 13.997H8.82C7.61984 13.9967 6.4596 14.4281 5.55118 15.2125C4.64275 15.9969 4.04674 17.0819 3.872 18.2694L2 30.9985V49M10 30.9985V49M29.5 28.9983C30.163 28.9983 30.7989 28.7349 31.2678 28.266C31.7366 27.7971 32 27.1612 32 26.4981C32 25.835 31.7366 25.199 31.2678 24.7302C30.7989 24.2613 30.163 23.9979 29.5 23.9979C28.837 23.9979 28.2011 24.2613 27.7322 24.7302C27.2634 25.199 27 25.835 27 26.4981C27 27.1612 27.2634 27.7971 27.7322 28.266C28.2011 28.7349 28.837 28.9983 29.5 28.9983ZM8.7 9.99668C8.7 9.99668 5.5 7.99651 5.5 5.4963C5.5 4.56902 5.86833 3.67972 6.52395 3.02404C7.17958 2.36836 8.0688 2 8.996 2C9.9232 2 10.8124 2.36836 11.468 3.02404C12.1237 3.67972 12.492 4.56902 12.492 5.4963C12.492 7.99651 9.3 9.99668 9.3 9.99668H8.7Z" stroke="white" stroke-width="3"/>
</svg>
