<svg width="28" height="41" viewBox="0 0 28 41" fill="none" xmlns="http://www.w3.org/2000/svg">
<path d="M20.3636 30.75C21.1273 28.1955 22.7102 26.0174 24.2773 23.8473C24.6909 23.2787 25.1045 22.7102 25.5023 22.1336C27.0773 19.8514 28 17.0887 28 14.1018C28 6.31016 21.7318 0 14 0C6.26818 0 0 6.31016 0 14.0938C0 17.0807 0.922727 19.8514 2.49773 22.1256C2.89545 22.7022 3.30909 23.2707 3.72273 23.8393C5.29773 26.0094 6.88068 28.1955 7.63636 30.742H20.3636V30.75ZM14 41C17.5159 41 20.3636 38.1332 20.3636 34.5938V33.3125H7.63636V34.5938C7.63636 38.1332 10.4841 41 14 41ZM7.63636 14.0938C7.63636 14.7984 7.06364 15.375 6.36364 15.375C5.66364 15.375 5.09091 14.7984 5.09091 14.0938C5.09091 9.13692 9.07614 5.125 14 5.125C14.7 5.125 15.2727 5.70156 15.2727 6.40625C15.2727 7.11094 14.7 7.6875 14 7.6875C10.4841 7.6875 7.63636 10.5543 7.63636 14.0938Z" fill="white"/>
</svg>
