<svg width="33" height="33" viewBox="0 0 33 33" fill="none" xmlns="http://www.w3.org/2000/svg">
<path d="M0.459019 13.6785L7.46949 6.66769C7.85899 6.27817 8.31801 5.99999 8.84655 5.83306C9.37509 5.66614 9.91757 5.63826 10.474 5.7496L13.6871 6.33384C12.1571 8.05867 10.9191 9.69319 9.97323 11.2372C9.0274 12.7813 8.15109 14.5827 7.3443 16.6414L0.459019 13.6785ZM8.88828 17.3926C9.6394 15.3616 10.5852 13.449 11.7259 11.6546C12.8665 9.86011 14.1601 8.23953 15.6066 6.79288C18.0547 4.34463 20.8506 2.51542 23.9942 1.30521C27.1378 0.0950133 30.0727 -0.273606 32.799 0.199341C33.272 2.92578 32.9103 5.86086 31.714 9.00463C30.5178 12.1483 28.6956 14.9443 26.2475 17.3926C24.801 18.8392 23.1735 20.1329 21.3653 21.2736C19.557 22.4142 17.6374 23.3601 15.6066 24.1113L8.88828 17.3926ZM20.8228 12.1762C21.3792 12.7325 22.0677 13.0108 22.8884 13.0108C23.709 13.0108 24.3975 12.7325 24.9539 12.1762C25.5104 11.6197 25.7885 10.9312 25.7885 10.1105C25.7885 9.28973 25.5104 8.60117 24.9539 8.04481C24.3975 7.48837 23.709 7.21019 22.8884 7.21019C22.0677 7.21019 21.3792 7.48837 20.8228 8.04481C20.2664 8.60117 19.9882 9.28973 19.9882 10.1105C19.9882 10.9312 20.2664 11.6197 20.8228 12.1762ZM19.3623 32.541L16.3578 25.6553C18.4164 24.8485 20.2177 23.9721 21.7617 23.0263C23.3057 22.0803 24.94 20.8423 26.6648 19.3122L27.249 22.5255C27.3603 23.0819 27.3325 23.6314 27.1656 24.1739C26.9987 24.7164 26.7205 25.1824 26.331 25.5719L19.3623 32.541ZM3.12967 22.8176C4.10335 21.8439 5.28565 21.35 6.67664 21.3362C8.06764 21.3222 9.2499 21.8021 10.2236 22.7759C11.1973 23.7496 11.6841 24.932 11.6841 26.323C11.6841 27.714 11.1973 28.8964 10.2236 29.8702C9.50028 30.5935 8.37359 31.1916 6.84356 31.6646C5.31352 32.1375 3.03231 32.5827 0 33C0.41729 29.9675 0.862397 27.6931 1.33533 26.177C1.80825 24.6607 2.40637 23.5409 3.12967 22.8176Z" fill="white"/>
</svg>
