<svg width="30" height="26" viewBox="0 0 30 26" fill="none" xmlns="http://www.w3.org/2000/svg">
<path d="M15.9375 3.71803C11.332 3.71803 7.43555 6.70637 6.11133 10.8262C8.08008 9.83977 10.3008 9.28852 12.6562 9.28852H17.8125C18.3281 9.28852 18.75 9.70631 18.75 10.2169C18.75 10.7276 18.3281 11.1454 17.8125 11.1454H12.6562C11.6836 11.1454 10.7402 11.2556 9.82617 11.4587C8.30859 11.801 6.90234 12.4103 5.64258 13.2401C2.24414 15.4857 0 19.3212 0 23.679V24.6074C0 25.3791 0.626953 26 1.40625 26C2.18555 26 2.8125 25.3791 2.8125 24.6074V23.679C2.8125 20.8531 4.02539 18.3116 5.96484 16.5302C7.125 20.9111 11.1504 24.1432 15.9375 24.1432H15.9961C23.7363 24.1026 30 16.5476 30 7.2344C30 4.7625 29.5605 2.41245 28.7637 0.294498C28.6113 -0.105881 28.0195 -0.0884733 27.8145 0.288695C26.7129 2.33121 24.5332 3.71803 22.0312 3.71803H15.9375Z" fill="white"/>
</svg>
