<svg width="17" height="22" viewBox="0 0 17 22" fill="none" xmlns="http://www.w3.org/2000/svg">
<path fill-rule="evenodd" clip-rule="evenodd" d="M8.5 0C3.80558 0 0 4.40284 0 9.35001C0 14.2584 2.7129 19.5937 6.94567 21.6419C7.93231 22.1194 9.06769 22.1194 10.0543 21.6419C14.2871 19.5937 17 14.2584 17 9.35001C17 4.40284 13.1944 0 8.5 0ZM8.5 11C9.67364 11 10.625 10.0151 10.625 8.80001C10.625 7.58498 9.67364 6.60001 8.5 6.60001C7.32636 6.60001 6.375 7.58498 6.375 8.80001C6.375 10.0151 7.32636 11 8.5 11Z" fill="white"/>
</svg>
