<svg width="23" height="27" viewBox="0 0 23 27" fill="none" xmlns="http://www.w3.org/2000/svg">
<path d="M2.4375 26.1875H13.3125C13.793 26.1869 14.2537 25.9958 14.5935 25.656C14.9333 25.3162 15.1244 24.8555 15.125 24.375V21.6562H13.3125V24.375H2.4375V2.625H13.3125V5.34375H15.125V2.625C15.1244 2.14446 14.9333 1.68377 14.5935 1.34398C14.2537 1.00419 13.793 0.813052 13.3125 0.8125H2.4375C1.95696 0.813052 1.49627 1.00419 1.15648 1.34398C0.816688 1.68377 0.625552 2.14446 0.625 2.625V24.375C0.625552 24.8555 0.816688 25.3162 1.15648 25.656C1.49627 25.9958 1.95696 26.1869 2.4375 26.1875Z" fill="#DC2626"/>
<path d="M15.6561 17.6561L18.9059 14.4062H6.0625V12.5937H18.9059L15.6561 9.34394L16.9375 8.0625L22.375 13.5L16.9375 18.9375L15.6561 17.6561Z" fill="#DC2626"/>
</svg>
