<svg width="63" height="63" viewBox="0 0 63 63" fill="none" xmlns="http://www.w3.org/2000/svg">
<g clip-path="url(#clip0_151_1256)">
<path d="M9.84375 61.0312L4.59375 54.4162C2.91483 52.3223 1.99012 49.7238 1.96875 47.04V33.4688C1.96875 32.4245 2.38359 31.4228 3.12202 30.6844C3.86043 29.946 4.86197 29.5312 5.90625 29.5312C6.95053 29.5312 7.95207 29.946 8.69048 30.6844C9.42889 31.4228 9.84375 32.4245 9.84375 33.4688V43.8113" stroke="white" stroke-width="2" stroke-linecap="round" stroke-linejoin="round"/>
<path d="M21.6562 61.0313V52.7888C21.6609 50.4594 20.9659 48.1822 19.6612 46.2525L16.6687 41.7375C16.4094 41.3063 16.0649 40.9325 15.6563 40.639C15.2477 40.3455 14.7836 40.1384 14.2922 40.0302C13.8009 39.9221 13.2927 39.9155 12.7986 40.0103C12.3045 40.1053 11.835 40.2998 11.4187 40.5825C10.6721 41.0776 10.1337 41.8302 9.90618 42.6967C9.67867 43.5632 9.7779 44.483 10.185 45.2813L13.7812 51.1875" stroke="white" stroke-width="2" stroke-linecap="round" stroke-linejoin="round"/>
<path d="M53.1562 61.0312L58.4062 54.4162C60.0944 52.3273 61.0202 49.7256 61.0312 47.04V33.4688C61.0312 32.4245 60.6165 31.4228 59.8781 30.6844C59.1397 29.946 58.138 29.5312 57.0938 29.5312C56.0495 29.5312 55.0478 29.946 54.3094 30.6844C53.571 31.4228 53.1562 32.4245 53.1562 33.4688V43.6537" stroke="white" stroke-width="2" stroke-linecap="round" stroke-linejoin="round"/>
<path d="M41.3437 61.0311V52.7886C41.339 50.4591 42.0341 48.1822 43.3387 46.2523L46.3312 41.7373C46.588 41.3034 46.9311 40.9267 47.3395 40.6311C47.748 40.3353 48.2128 40.1269 48.705 40.0185C49.1975 39.9101 49.707 39.9043 50.2018 40.0014C50.6966 40.0983 51.1662 40.2962 51.5812 40.5823C52.3323 41.0735 52.8762 41.8242 53.1085 42.6912C53.341 43.558 53.2458 44.4802 52.8412 45.2811L49.2187 51.1873" stroke="white" stroke-width="2" stroke-linecap="round" stroke-linejoin="round"/>
<path d="M25.6719 9.58611L29.8906 2.75174C30.1119 2.39396 30.4231 2.10048 30.7932 1.90061C31.1634 1.70073 31.5795 1.60145 32 1.61267C32.4095 1.61107 32.8126 1.71345 33.1717 1.91022C33.5308 2.10699 33.8341 2.3917 34.0531 2.73767L39.0312 10.6267" stroke="white" stroke-width="2" stroke-miterlimit="10"/>
<path d="M22.8594 14.0718L17.5578 22.5093C17.3457 22.8409 17.2334 23.2266 17.2344 23.6202C17.2268 23.9013 17.2759 24.1809 17.3787 24.4426C17.4815 24.7043 17.6359 24.9426 17.8327 25.1434C18.0295 25.3441 18.2648 25.5032 18.5243 25.6112C18.7839 25.7192 19.0626 25.7738 19.3437 25.7718H30.6781" stroke="white" stroke-width="2" stroke-miterlimit="10"/>
<path d="M36.2188 25.7721H44.6563C45.2095 25.7684 45.7389 25.546 46.1288 25.1534C46.5187 24.7609 46.7375 24.23 46.7375 23.6768C46.7365 23.2878 46.6243 22.9072 46.4141 22.5799L41.8438 15.1689" stroke="white" stroke-width="2" stroke-miterlimit="10"/>
<path d="M40.0578 21.7358L36.0922 25.7015L40.1281 29.7233" stroke="white" stroke-width="2" stroke-miterlimit="10"/>
<path d="M33.5328 9.40332L38.9891 10.6689L40.2687 5.11426" stroke="white" stroke-width="2" stroke-miterlimit="10"/>
<path d="M41.9141 15.2391L41.8578 15.1406" stroke="white" stroke-miterlimit="10"/>
<path d="M24.1953 19.5139L22.9297 14.0576L17.3891 15.3514" stroke="white" stroke-width="2" stroke-miterlimit="10"/>
<path d="M25.7422 9.40332L25.6437 9.58613" stroke="white" stroke-miterlimit="10"/>
</g>
<defs>
<clipPath id="clip0_151_1256">
<rect width="63" height="63" fill="white"/>
</clipPath>
</defs>
</svg>
