<svg width="43" height="42" viewBox="0 0 43 42" fill="none" xmlns="http://www.w3.org/2000/svg">
<path d="M21.704 38.5103L21.4325 38.4561L21.161 38.5103C16.7759 39.3842 12.6361 38.8983 9.61183 36.487C6.60357 34.0886 4.36523 29.5172 4.36523 21.474C4.36523 13.2484 6.22494 9.90661 8.67432 8.68615C9.95555 8.04762 11.6123 7.8619 13.7204 8.10439C15.8261 8.34638 18.2558 9.00033 20.9948 9.91022L21.4758 10.07L21.9463 9.88233C26.5253 8.05697 30.6413 7.35774 33.5324 8.7024C36.2433 9.96322 38.4998 13.3705 38.4998 21.474C38.4998 29.5172 36.2614 34.0886 33.2532 36.487C30.2289 38.8983 26.0889 39.3844 21.704 38.5103Z" stroke="#2C6B3F" stroke-width="2"/>
<path d="M21.4328 9.52097C21.4328 4.92394 19.5877 3.08496 15.8975 3.08496" stroke="#2C6B3F" stroke-linecap="round" stroke-linejoin="round"/>
</svg>
