<svg width="37" height="38" viewBox="0 0 37 38" fill="none" xmlns="http://www.w3.org/2000/svg">
<path d="M18.704 36.5103L18.4325 36.4561L18.161 36.5103C13.7759 37.3842 9.63605 36.8983 6.61183 34.487C3.60357 32.0886 1.36523 27.5172 1.36523 19.474C1.36523 11.2484 3.22494 7.90661 5.67432 6.68615C6.95555 6.04762 8.61228 5.8619 10.7204 6.10439C12.8261 6.34638 15.2558 7.00033 17.9948 7.91022L18.4758 8.07002L18.9463 7.88233C23.5253 6.05697 27.6413 5.35774 30.5324 6.7024C33.2433 7.96322 35.4998 11.3705 35.4998 19.474C35.4998 27.5172 33.2614 32.0886 30.2532 34.487C27.2289 36.8983 23.0889 37.3844 18.704 36.5103Z" stroke="white" stroke-width="2"/>
<path d="M18.4328 7.52097C18.4328 2.92394 16.5877 1.08496 12.8975 1.08496" stroke="white" stroke-linecap="round" stroke-linejoin="round"/>
</svg>
