<svg width="25" height="25" viewBox="0 0 25 25" fill="none" xmlns="http://www.w3.org/2000/svg">
<path d="M24.4793 3.63794e-05H21.3543C21.286 -0.000796352 21.2183 0.0126754 21.1555 0.0395853C21.0927 0.0664952 21.0363 0.106248 20.9898 0.156286L11.0627 10.0834C9.39687 9.32128 7.51622 9.16879 5.74939 9.65254C3.98256 10.1363 2.4419 11.2255 1.39665 12.7299C0.351394 14.2343 -0.131982 16.0581 0.0309906 17.8827C0.193963 19.7073 0.992918 21.4167 2.28824 22.712C3.58356 24.0073 5.29287 24.8063 7.11747 24.9692C8.94207 25.1322 10.7659 24.6488 12.2703 23.6036C13.7747 22.5583 14.8639 21.0177 15.3477 19.2508C15.8314 17.484 15.6789 15.6034 14.9168 13.9375L17.3335 11.5313L19.3439 12.2084C19.5194 12.2717 19.7086 12.2867 19.8918 12.2519C20.0751 12.2171 20.2456 12.1337 20.3856 12.0105C20.5203 11.8956 20.6235 11.7483 20.6855 11.5824C20.7475 11.4165 20.7662 11.2376 20.7398 11.0625L20.3231 8.5417L21.0731 7.78129L22.5939 8.4792C22.7709 8.55781 22.9663 8.58552 23.1582 8.55922C23.3501 8.53291 23.5308 8.45363 23.6801 8.33029C23.8295 8.20694 23.9414 8.04441 24.0035 7.86095C24.0655 7.67749 24.0752 7.48036 24.0314 7.2917L23.5002 5.40629L24.8439 4.05212C24.8995 4.00104 24.9426 3.93779 24.9697 3.86731C24.9968 3.79684 25.0072 3.72105 25.0002 3.64587V0.52087C25.0002 0.382736 24.9453 0.25026 24.8476 0.152585C24.75 0.0549098 24.6175 3.63794e-05 24.4793 3.63794e-05ZM7.29185 19.2709C7.29185 19.5799 7.20021 19.882 7.02852 20.1389C6.85683 20.3959 6.6128 20.5962 6.32729 20.7144C6.04178 20.8327 5.72761 20.8636 5.42452 20.8033C5.12142 20.7431 4.84301 20.5942 4.62449 20.3757C4.40597 20.1572 4.25716 19.8788 4.19687 19.5757C4.13658 19.2726 4.16752 18.9584 4.28578 18.6729C4.40405 18.3874 4.60432 18.1434 4.86127 17.9717C5.11822 17.8 5.42031 17.7084 5.72935 17.7084C6.14375 17.7084 6.54118 17.873 6.8342 18.166C7.12723 18.459 7.29185 18.8565 7.29185 19.2709Z" fill="#6B7280"/>
</svg>
