<svg width="26" height="26" viewBox="0 0 26 26" fill="none" xmlns="http://www.w3.org/2000/svg">
<path d="M24.375 26C21.5824 26 18.7357 25.326 15.8347 23.9778C12.9338 22.6296 10.2435 20.7157 7.76389 18.2361C5.28428 15.7565 3.37039 13.0662 2.02222 10.1653C0.674072 7.26433 0 4.41762 0 1.625C0 1.1676 0.156484 0.782405 0.469445 0.469445C0.782405 0.156484 1.1676 0 1.625 0H6.68056C7.01762 0 7.30651 0.120373 7.54722 0.361111C7.78794 0.601849 7.95651 0.902778 8.05278 1.26389L9.02778 5.81389C9.07595 6.15095 9.06988 6.45789 9.00972 6.73472C8.94956 7.01155 8.82317 7.24627 8.63056 7.43889L5.01944 11.0861C5.64539 12.1454 6.30738 13.1324 7.00556 14.0472C7.70373 14.9621 8.47405 15.8287 9.31667 16.6472C10.2074 17.5621 11.1463 18.3986 12.1333 19.1569C13.1204 19.9153 14.1556 20.5833 15.2389 21.1611L18.6694 17.6222C18.9102 17.3574 19.1871 17.1768 19.5 17.0806C19.8129 16.9843 20.1259 16.9602 20.4389 17.0083L24.7361 17.9472C25.0972 18.0435 25.3982 18.2361 25.6389 18.525C25.8796 18.8139 26 19.1389 26 19.5V24.375C26 24.8324 25.8435 25.2176 25.5306 25.5306C25.2176 25.8435 24.8324 26 24.375 26Z" fill="#2C6B3F"/>
</svg>
