<svg width="40" height="38" viewBox="0 0 40 38" fill="none" xmlns="http://www.w3.org/2000/svg">
<path d="M12.4001 11.9072L17.4528 3.41622C17.7178 2.97173 18.0905 2.60711 18.5338 2.35879C18.9771 2.11047 19.4755 1.98712 19.9791 2.00106C20.4695 1.99908 20.9524 2.12627 21.3825 2.37073C21.8125 2.61519 22.1758 2.96891 22.4381 3.39875L28.4002 13.2" stroke="#2C6B3F" stroke-width="3" stroke-miterlimit="10"/>
<path d="M9.02986 17.2002L2.40511 27.5848C2.14009 27.993 1.99979 28.4676 2.00095 28.9521C1.99151 29.298 2.05284 29.6422 2.18129 29.9643C2.30974 30.2864 2.50269 30.5797 2.74863 30.8268C2.99458 31.0739 3.2885 31.2697 3.61288 31.4025C3.93727 31.5354 4.28548 31.6026 4.63679 31.6002H18.8" stroke="#2C6B3F" stroke-width="3" stroke-miterlimit="10"/>
<path d="M25.2 31.5998H35.4674C36.1406 31.5954 36.7848 31.3269 37.2592 30.853C37.7337 30.3791 38 29.7383 38 29.0704C37.9988 28.6008 37.8622 28.1413 37.6064 27.7462L32.0449 18.7998" stroke="#2C6B3F" stroke-width="3" stroke-miterlimit="10"/>
<path d="M29.9163 26.8003L25.2 31.5665L30 36.4003" stroke="#2C6B3F" stroke-width="3" stroke-miterlimit="10"/>
<path d="M22.0002 11.5595L28.4804 13.2L30.0003 6" stroke="#2C6B3F" stroke-width="3" stroke-miterlimit="10"/>
<path d="M10.8 23.6002L9.16366 17.2002L2 18.7177" stroke="#2C6B3F" stroke-width="3" stroke-miterlimit="10"/>
</svg>
