<svg width="21" height="29" viewBox="0 0 21 29" fill="none" xmlns="http://www.w3.org/2000/svg">
<path d="M9.01676 0.606795C9.83674 -0.202265 11.1684 -0.202265 11.9883 0.606795L20.3848 8.89159C20.9883 9.48706 21.1655 10.3738 20.8375 11.1505C20.5095 11.9272 19.7485 12.432 18.8958 12.432H2.10278C1.25657 12.432 0.489075 11.9272 0.161087 11.1505C-0.1669 10.3738 0.0167657 9.48706 0.613705 8.89159L9.0102 0.606795H9.01676ZM9.01676 28.3932L0.620266 20.1084C0.0167751 19.5129 -0.160339 18.6262 0.167648 17.8495C0.495635 17.0728 1.25657 16.568 2.10934 16.568H18.8958C19.742 16.568 20.5095 17.0728 20.8375 17.8495C21.1655 18.6262 20.9818 19.5129 20.3848 20.1084L11.9883 28.3932C11.1684 29.2023 9.83674 29.2023 9.01676 28.3932Z" fill="white"/>
</svg>
