<svg width="44" height="44" viewBox="0 0 44 44" fill="none" xmlns="http://www.w3.org/2000/svg">
<path d="M22 44C18.9566 44 16.0966 43.4225 13.42 42.2675C10.7434 41.1125 8.415 39.545 6.435 37.565C4.455 35.585 2.8875 33.2566 1.7325 30.58C0.5775 27.9034 0 25.0434 0 22C0 18.9566 0.5775 16.0966 1.7325 13.42C2.8875 10.7434 4.455 8.415 6.435 6.435C8.415 4.455 10.7434 2.8875 13.42 1.7325C16.0966 0.5775 18.9566 0 22 0C25.0434 0 27.9034 0.5775 30.58 1.7325C33.2566 2.8875 35.585 4.455 37.565 6.435C39.545 8.415 41.1125 10.7434 42.2675 13.42C43.4225 16.0966 44 18.9566 44 22C44 25.0434 43.4225 27.9034 42.2675 30.58C41.1125 33.2566 39.545 35.585 37.565 37.565C35.585 39.545 33.2566 41.1125 30.58 42.2675C27.9034 43.4225 25.0434 44 22 44ZM22 40.7C27.2206 40.7 31.6424 38.8885 35.2655 35.2655C38.8885 31.6421 40.7 27.2203 40.7 22C40.7 16.7794 38.8885 12.3576 35.2655 8.73455C31.6424 5.11151 27.2206 3.3 22 3.3C16.7797 3.3 12.358 5.11151 8.73455 8.73455C5.11151 12.3576 3.3 16.7794 3.3 22C3.3 27.2203 5.11151 31.6421 8.73455 35.2655C12.358 38.8885 16.7797 40.7 22 40.7ZM22 35.2C18.3334 35.2 15.2166 33.9166 12.65 31.35C10.0834 28.7834 8.8 25.6666 8.8 22C8.8 18.3334 10.0834 15.2166 12.65 12.65C15.2166 10.0834 18.3334 8.8 22 8.8C25.6666 8.8 28.7834 10.0834 31.35 12.65C33.9166 15.2166 35.2 18.3334 35.2 22C35.2 25.6666 33.9166 28.7834 31.35 31.35C28.7834 33.9166 25.6666 35.2 22 35.2ZM22 31.9C24.75 31.9 27.0875 30.9375 29.0125 29.0125C30.9375 27.0875 31.9 24.75 31.9 22C31.9 19.25 30.9375 16.9125 29.0125 14.9875C27.0875 13.0625 24.75 12.1 22 12.1C19.25 12.1 16.9125 13.0625 14.9875 14.9875C13.0625 16.9125 12.1 19.25 12.1 22C12.1 24.75 13.0625 27.0875 14.9875 29.0125C16.9125 30.9375 19.25 31.9 22 31.9ZM22 26.4C20.79 26.4 19.7541 25.9691 18.8925 25.1075C18.0309 24.2459 17.6 23.21 17.6 22C17.6 20.79 18.0309 19.7541 18.8925 18.8925C19.7541 18.0309 20.79 17.6 22 17.6C23.21 17.6 24.2459 18.0309 25.1075 18.8925C25.9691 19.7541 26.4 20.79 26.4 22C26.4 23.21 25.9691 24.2459 25.1075 25.1075C24.2459 25.9691 23.21 26.4 22 26.4Z" fill="white"/>
</svg>
