<svg width="38" height="45" viewBox="0 0 38 45" fill="none" xmlns="http://www.w3.org/2000/svg">
<path d="M32.5859 15.5938L30.6828 34.6205C30.3951 37.5046 30.2523 38.9455 29.5953 40.0353C29.0191 40.9946 28.1716 41.7617 27.1598 42.2398C26.0111 42.7812 24.5656 42.7812 21.6656 42.7812H16.3187C13.421 42.7812 11.9733 42.7813 10.8246 42.2375C9.81198 41.7598 8.96366 40.9927 8.3868 40.033C7.7343 38.9455 7.5893 37.5046 7.2993 34.6205L5.39844 15.5938M22.3906 30.3203V18.9922M15.5938 30.3203V18.9922M2 9.92969H12.4559M12.4559 9.92969L13.3304 3.87594C13.5841 2.77484 14.4995 2 15.5507 2H22.4337C23.4849 2 24.398 2.77484 24.654 3.87594L25.5285 9.92969M12.4559 9.92969H25.5285M25.5285 9.92969H35.9844" stroke="white" stroke-width="3" stroke-linecap="round" stroke-linejoin="round"/>
</svg>
